<svg width="953" height="418" viewBox="0 0 953 418" fill="none" xmlns="http://www.w3.org/2000/svg">
<path d="M150.602 102.869H155.523V162H150.602V102.869ZM170.289 102.869H175.211V162H170.289V102.869ZM160.445 102.869H165.367V162H160.445V102.869ZM145.68 102.869V162C137.021 165.281 128.043 166.922 118.746 166.922C110.68 166.922 102.955 165.441 95.5723 162.479C88.1895 159.516 81.6953 155.415 76.0898 150.174C70.4844 144.887 65.9954 138.37 62.623 130.623C59.2962 122.83 57.6328 114.422 57.6328 105.398C57.6328 97.0586 59.2507 89.1061 62.4863 81.541C65.7676 73.9303 70.1426 67.3906 75.6113 61.9219C81.1257 56.4076 87.6654 52.0326 95.2305 48.7969C102.841 45.5156 110.816 43.875 119.156 43.875C129.547 43.875 139.208 46.2904 148.141 51.1211C157.073 55.9518 164.365 62.5143 170.016 70.8086L165.914 73.4746C160.719 65.8639 153.997 59.8483 145.748 55.4277C137.545 51.0072 128.681 48.7969 119.156 48.7969C111.5 48.7969 104.163 50.3008 97.1445 53.3086C90.1719 56.2708 84.1562 60.2812 79.0977 65.3398C74.0391 70.3984 70.0059 76.4368 66.998 83.4551C64.0358 90.4277 62.5547 97.7422 62.5547 105.398C62.5547 113.647 64.0814 121.349 67.1348 128.504C70.2337 135.659 74.3353 141.652 79.4395 146.482C84.5892 151.313 90.5592 155.118 97.3496 157.898C104.14 160.633 111.204 162 118.541 162C126.243 162 133.648 160.792 140.758 158.377V153.66C133.967 155.939 126.835 157.078 119.361 157.078C113.938 157.078 108.652 156.326 103.502 154.822C98.3978 153.273 93.6582 151.017 89.2832 148.055C84.9538 145.047 81.1484 141.492 77.8672 137.391C74.6315 133.243 72.0794 128.436 70.2109 122.967C68.388 117.452 67.4766 111.596 67.4766 105.398C67.4766 96.056 69.778 87.4199 74.3809 79.4902C79.0293 71.5605 85.3184 65.2943 93.248 60.6914C101.178 56.043 109.814 53.7188 119.156 53.7188C127.906 53.7188 136.041 55.7695 143.561 59.8711C151.08 63.9271 157.21 69.4414 161.949 76.4141L157.848 79.0801C153.564 72.791 148.004 67.8236 141.168 64.1777C134.378 60.4863 127.04 58.6406 119.156 58.6406C112.822 58.6406 106.76 59.8711 100.973 62.332C95.1849 64.793 90.1947 68.1198 86.002 72.3125C81.8548 76.4596 78.5508 81.4271 76.0898 87.2148C73.6289 93.0026 72.3984 99.0638 72.3984 105.398C72.3984 111.095 73.2188 116.45 74.8594 121.463C76.5456 126.43 78.847 130.783 81.7637 134.52C84.7259 138.211 88.1667 141.401 92.0859 144.09C96.0052 146.733 100.266 148.738 104.869 150.105C109.518 151.473 114.28 152.156 119.156 152.156C126.721 152.156 133.922 150.88 140.758 148.328V143.406C134.013 146.004 126.972 147.303 119.635 147.303C114.075 147.303 108.766 146.368 103.707 144.5C98.6484 142.586 94.1367 139.897 90.1719 136.434C86.2526 132.97 83.1309 128.549 80.8066 123.172C78.4824 117.794 77.3203 111.87 77.3203 105.398C77.3203 97.8333 79.1888 90.8379 82.9258 84.4121C86.6628 77.9863 91.7441 72.9049 98.1699 69.168C104.596 65.431 111.591 63.5625 119.156 63.5625C126.22 63.5625 132.783 65.2031 138.844 68.4844C144.951 71.7656 149.918 76.2318 153.746 81.8828L149.645 84.5488C146.272 79.627 141.897 75.7305 136.52 72.8594C131.188 69.9427 125.4 68.4844 119.156 68.4844C112.457 68.4844 106.282 70.1478 100.631 73.4746C94.9798 76.7559 90.4909 81.222 87.1641 86.873C83.8828 92.5241 82.2422 98.6992 82.2422 105.398C82.2422 110.047 82.903 114.376 84.2246 118.387C85.5462 122.397 87.3691 125.861 89.6934 128.777C92.0176 131.694 94.7292 134.178 97.8281 136.229C100.973 138.279 104.345 139.829 107.945 140.877C111.546 141.88 115.283 142.381 119.156 142.381C126.858 142.381 134.059 140.854 140.758 137.801V133.084C134.286 135.955 127.291 137.391 119.771 137.391C115.442 137.391 111.363 136.73 107.535 135.408C103.707 134.087 100.243 132.15 97.1445 129.598C94.0911 127.046 91.653 123.696 89.8301 119.549C88.0527 115.356 87.1641 110.639 87.1641 105.398C87.1641 101.069 88.0072 96.9447 89.6934 93.0254C91.3796 89.0605 93.6582 85.6426 96.5293 82.7715C99.4004 79.9004 102.796 77.6217 106.715 75.9355C110.68 74.2493 114.827 73.4062 119.156 73.4062C124.579 73.4062 129.615 74.6823 134.264 77.2344C138.912 79.7409 142.695 83.1589 145.611 87.4883L141.578 90.1543C139.117 86.5085 135.904 83.6374 131.939 81.541C128.02 79.3991 123.759 78.3281 119.156 78.3281C111.682 78.3281 105.302 80.9714 100.016 86.2578C94.7292 91.5443 92.0859 97.9245 92.0859 105.398C92.0859 110.001 92.8379 114.08 94.3418 117.635C95.8457 121.144 97.8965 123.969 100.494 126.111C103.137 128.208 106.054 129.803 109.244 130.896C112.48 131.945 115.943 132.469 119.635 132.469C127.2 132.469 134.241 130.896 140.758 127.752V102.869H145.68ZM227.164 86.2578C221.878 91.5443 219.234 97.9245 219.234 105.398C219.234 112.872 221.878 119.253 227.164 124.539C232.451 129.826 238.831 132.469 246.305 132.469C253.779 132.469 260.159 129.826 265.445 124.539C270.732 119.253 273.375 112.872 273.375 105.398C273.375 97.9245 270.732 91.5443 265.445 86.2578C260.159 80.9714 253.779 78.3281 246.305 78.3281C238.831 78.3281 232.451 80.9714 227.164 86.2578ZM216.842 117.84C215.156 113.875 214.312 109.728 214.312 105.398C214.312 101.069 215.156 96.9447 216.842 93.0254C218.528 89.0605 220.807 85.6426 223.678 82.7715C226.549 79.9004 229.944 77.6217 233.863 75.9355C237.828 74.2493 241.975 73.4062 246.305 73.4062C250.634 73.4062 254.758 74.2493 258.678 75.9355C262.643 77.6217 266.061 79.9004 268.932 82.7715C271.803 85.6426 274.081 89.0605 275.768 93.0254C277.454 96.9447 278.297 101.069 278.297 105.398C278.297 109.728 277.454 113.875 275.768 117.84C274.081 121.759 271.803 125.154 268.932 128.025C266.061 130.896 262.643 133.175 258.678 134.861C254.758 136.548 250.634 137.391 246.305 137.391C241.975 137.391 237.828 136.548 233.863 134.861C229.944 133.175 226.549 130.896 223.678 128.025C220.807 125.154 218.528 121.759 216.842 117.84ZM214.312 86.873C211.031 92.5241 209.391 98.6992 209.391 105.398C209.391 112.098 211.031 118.273 214.312 123.924C217.639 129.575 222.128 134.064 227.779 137.391C233.43 140.672 239.605 142.312 246.305 142.312C253.004 142.312 259.179 140.672 264.83 137.391C270.481 134.064 274.947 129.575 278.229 123.924C281.555 118.273 283.219 112.098 283.219 105.398C283.219 98.6992 281.555 92.5241 278.229 86.873C274.947 81.222 270.481 76.7559 264.83 73.4746C259.179 70.1478 253.004 68.4844 246.305 68.4844C239.605 68.4844 233.43 70.1478 227.779 73.4746C222.128 76.7559 217.639 81.222 214.312 86.873ZM210.074 126.385C206.337 119.959 204.469 112.964 204.469 105.398C204.469 97.8333 206.337 90.8379 210.074 84.4121C213.811 77.9863 218.893 72.9049 225.318 69.168C231.744 65.431 238.74 63.5625 246.305 63.5625C253.87 63.5625 260.865 65.431 267.291 69.168C273.717 72.9049 278.798 77.9863 282.535 84.4121C286.272 90.8379 288.141 97.8333 288.141 105.398C288.141 112.964 286.272 119.959 282.535 126.385C278.798 132.811 273.717 137.892 267.291 141.629C260.865 145.366 253.87 147.234 246.305 147.234C238.74 147.234 231.744 145.366 225.318 141.629C218.893 137.892 213.811 132.811 210.074 126.385ZM203.238 87.2148C200.777 93.0026 199.547 99.0638 199.547 105.398C199.547 111.733 200.777 117.794 203.238 123.582C205.699 129.37 209.003 134.36 213.15 138.553C217.343 142.7 222.333 146.004 228.121 148.465C233.909 150.926 239.97 152.156 246.305 152.156C252.639 152.156 258.701 150.926 264.488 148.465C270.276 146.004 275.243 142.7 279.391 138.553C283.583 134.36 286.91 129.37 289.371 123.582C291.832 117.794 293.062 111.733 293.062 105.398C293.062 99.0638 291.832 93.0026 289.371 87.2148C286.91 81.4271 283.583 76.4596 279.391 72.3125C275.243 68.1198 270.276 64.793 264.488 62.332C258.701 59.8711 252.639 58.6406 246.305 58.6406C239.97 58.6406 233.909 59.8711 228.121 62.332C222.333 64.793 217.343 68.1198 213.15 72.3125C209.003 76.4596 205.699 81.4271 203.238 87.2148ZM201.529 131.307C196.926 123.377 194.625 114.741 194.625 105.398C194.625 96.056 196.926 87.4199 201.529 79.4902C206.178 71.5605 212.467 65.2943 220.396 60.6914C228.326 56.043 236.962 53.7188 246.305 53.7188C255.647 53.7188 264.283 56.043 272.213 60.6914C280.143 65.2943 286.409 71.5605 291.012 79.4902C295.66 87.4199 297.984 96.056 297.984 105.398C297.984 114.741 295.66 123.377 291.012 131.307C286.409 139.236 280.143 145.525 272.213 150.174C264.283 154.777 255.647 157.078 246.305 157.078C236.962 157.078 228.326 154.777 220.396 150.174C212.467 145.525 206.178 139.236 201.529 131.307ZM194.146 83.4551C191.184 90.4277 189.703 97.7422 189.703 105.398C189.703 113.055 191.184 120.392 194.146 127.41C197.154 134.383 201.188 140.398 206.246 145.457C211.305 150.516 217.32 154.549 224.293 157.557C231.311 160.519 238.648 162 246.305 162C253.961 162 261.275 160.519 268.248 157.557C275.266 154.549 281.305 150.516 286.363 145.457C291.422 140.398 295.432 134.383 298.395 127.41C301.402 120.392 302.906 113.055 302.906 105.398C302.906 97.7422 301.402 90.4277 298.395 83.4551C295.432 76.4368 291.422 70.3984 286.363 65.3398C281.305 60.2812 275.266 56.2708 268.248 53.3086C261.275 50.3008 253.961 48.7969 246.305 48.7969C238.648 48.7969 231.311 50.3008 224.293 53.3086C217.32 56.2708 211.305 60.2812 206.246 65.3398C201.188 70.3984 197.154 76.4368 194.146 83.4551ZM189.635 129.324C186.399 121.714 184.781 113.738 184.781 105.398C184.781 97.0586 186.399 89.1061 189.635 81.541C192.916 73.9303 197.291 67.3906 202.76 61.9219C208.274 56.4076 214.814 52.0326 222.379 48.7969C229.99 45.5156 237.965 43.875 246.305 43.875C254.645 43.875 262.597 45.5156 270.162 48.7969C277.773 52.0326 284.312 56.4076 289.781 61.9219C295.296 67.3906 299.671 73.9303 302.906 81.541C306.188 89.1061 307.828 97.0586 307.828 105.398C307.828 113.738 306.188 121.714 302.906 129.324C299.671 136.889 295.296 143.429 289.781 148.943C284.312 154.412 277.773 158.764 270.162 162C262.597 165.281 254.645 166.922 246.305 166.922C237.965 166.922 229.99 165.281 222.379 162C214.814 158.764 208.274 154.412 202.76 148.943C197.291 143.429 192.916 136.889 189.635 129.324ZM317.809 98.0156V93.0938H371.949V98.0156H317.809ZM317.809 107.859V102.938H371.949V107.859H317.809ZM317.809 117.703V112.781H371.949V117.703H317.809ZM383.434 125.291V120.027L460.475 89.5391L383.434 59.0508V53.7871L467.105 86.873V92.2051L383.434 125.291ZM383.434 135.887V130.555L467.105 97.4688V102.732L383.434 135.887ZM383.434 157.078V151.746L467.105 118.66V123.924L383.434 157.078ZM383.434 146.482V141.219L467.105 108.064V113.328L383.434 146.482ZM383.434 69.5781V64.3145L448.785 90.1543L442.496 92.957L383.434 69.5781ZM383.434 80.2422V74.9102L435.797 95.623L429.029 98.2207L383.434 80.2422ZM383.434 90.7695V85.5059L422.262 100.818L415.357 103.416L383.434 90.7695ZM507.779 132.469V78.3281C507.779 78.3281 518.967 78.3281 541.344 78.3281C546.767 78.3281 551.415 80.9941 555.289 86.3262C559.208 91.6126 561.168 97.9701 561.168 105.398C561.168 112.872 559.208 119.253 555.289 124.539C551.415 129.826 546.767 132.469 541.344 132.469H507.779ZM512.701 127.547H541.344C545.4 127.547 548.863 125.382 551.734 121.053C554.651 116.723 556.109 111.505 556.109 105.398C556.109 99.2461 554.651 94.028 551.734 89.7441C548.863 85.4147 545.4 83.25 541.344 83.25H512.701V127.547ZM502.857 137.391H541.344C548.134 137.391 553.967 134.269 558.844 128.025C563.766 121.736 566.227 114.194 566.227 105.398C566.227 99.6107 565.087 94.2559 562.809 89.334C560.576 84.4121 557.545 80.5384 553.717 77.7129C549.934 74.8418 545.81 73.4062 541.344 73.4062H502.857V137.391ZM497.936 142.312V68.4844H541.344C546.676 68.4844 551.643 70.125 556.246 73.4062C560.849 76.6875 564.495 81.1764 567.184 86.873C569.918 92.5241 571.285 98.6992 571.285 105.398C571.285 112.052 569.918 118.227 567.184 123.924C564.495 129.62 560.849 134.109 556.246 137.391C551.643 140.672 546.676 142.312 541.344 142.312H497.936ZM493.014 147.234H541.344C547.587 147.234 553.375 145.366 558.707 141.629C564.085 137.892 568.368 132.811 571.559 126.385C574.749 119.959 576.344 112.964 576.344 105.398C576.344 97.8789 574.749 90.9062 571.559 84.4805C568.368 78.0091 564.085 72.9049 558.707 69.168C553.329 65.431 547.542 63.5625 541.344 63.5625H493.014V147.234ZM488.092 152.156V58.6406H541.344C548.453 58.6406 555.084 60.737 561.236 64.9297C567.389 69.0768 572.288 74.7507 575.934 81.9512C579.579 89.1517 581.402 96.9674 581.402 105.398C581.402 113.829 579.579 121.645 575.934 128.846C572.288 136.046 567.389 141.743 561.236 145.936C555.084 150.083 548.453 152.156 541.344 152.156H488.092ZM483.17 157.078H541.344C547.314 157.078 553.079 155.711 558.639 152.977C564.199 150.242 569.007 146.574 573.062 141.971C577.118 137.368 580.354 131.876 582.77 125.496C585.23 119.07 586.461 112.371 586.461 105.398C586.461 98.4258 585.23 91.7493 582.77 85.3691C580.354 78.9889 577.118 73.4974 573.062 68.8945C569.007 64.2461 564.199 60.5547 558.639 57.8203C553.079 55.0859 547.314 53.7188 541.344 53.7188H483.17V157.078ZM541.344 162H478.248V48.7969H541.344C550.23 48.7969 558.525 51.3262 566.227 56.3848C573.928 61.4434 580.058 68.3249 584.615 77.0293C589.218 85.7337 591.52 95.1901 591.52 105.398C591.52 113.055 590.152 120.392 587.418 127.41C584.729 134.383 581.129 140.398 576.617 145.457C572.105 150.516 566.751 154.549 560.553 157.557C554.4 160.519 547.997 162 541.344 162ZM644.156 128.777L646.139 123.855H662.955L664.938 128.777H644.156ZM640.328 138.621L642.242 133.699H666.783L668.902 138.621H640.328ZM636.5 148.465L638.414 143.543H670.68L672.73 148.465H636.5ZM596.51 162H591.178L635.953 48.7969H641.285L685.992 162H680.729L638.619 55.4277L596.51 162ZM639.234 67.1172L642.037 73.4062L607.037 162H601.773L639.234 67.1172ZM644.703 80.1055L647.301 86.873L617.701 162H612.369L644.703 80.1055ZM649.898 93.6406L652.496 100.545L628.229 162H622.965L649.898 93.6406ZM717.779 162H712.447L667.74 48.7969H673.004L717.779 162ZM662.408 48.7969L707.184 162H701.92L657.145 48.7969H662.408ZM651.812 48.7969L696.588 162H691.256L646.549 48.7969H651.812ZM724.205 53.7188V48.7969H798.033V53.7188H724.205ZM724.205 63.5625V58.6406H798.033V63.5625H724.205ZM724.205 73.4062V68.4844H798.033V73.4062H778.346V162H773.424V73.4062H768.502V162H763.58V73.4062H758.658V162H753.736V73.4062H748.814V162H743.893V73.4062H724.205ZM858.121 128.777L860.104 123.855H876.92L878.902 128.777H858.121ZM854.293 138.621L856.207 133.699H880.748L882.867 138.621H854.293ZM850.465 148.465L852.379 143.543H884.645L886.695 148.465H850.465ZM810.475 162H805.143L849.918 48.7969H855.25L899.957 162H894.693L852.584 55.4277L810.475 162ZM853.199 67.1172L856.002 73.4062L821.002 162H815.738L853.199 67.1172ZM858.668 80.1055L861.266 86.873L831.666 162H826.334L858.668 80.1055ZM863.863 93.6406L866.461 100.545L842.193 162H836.93L863.863 93.6406ZM931.744 162H926.412L881.705 48.7969H886.969L931.744 162ZM876.373 48.7969L921.148 162H915.885L871.109 48.7969H876.373ZM865.777 48.7969L910.553 162H905.221L860.514 48.7969H865.777ZM384.596 305.488L380.562 308.154C378.102 304.508 374.889 301.637 370.924 299.541C367.005 297.399 362.743 296.328 358.141 296.328C350.667 296.328 344.286 298.971 339 304.258C333.714 309.544 331.07 315.924 331.07 323.398C331.07 330.872 333.714 337.253 339 342.539C344.286 347.826 350.667 350.469 358.141 350.469C362.743 350.469 367.005 349.398 370.924 347.256C374.889 345.114 378.102 342.22 380.562 338.574L384.527 341.445C381.611 345.729 377.828 349.124 373.18 351.631C368.531 354.137 363.518 355.391 358.141 355.391C353.811 355.391 349.664 354.548 345.699 352.861C341.78 351.175 338.385 348.896 335.514 346.025C332.643 343.154 330.364 339.759 328.678 335.84C326.992 331.875 326.148 327.728 326.148 323.398C326.148 319.069 326.992 314.945 328.678 311.025C330.364 307.061 332.643 303.643 335.514 300.771C338.385 297.9 341.78 295.622 345.699 293.936C349.664 292.249 353.811 291.406 358.141 291.406C363.564 291.406 368.6 292.682 373.248 295.234C377.896 297.741 381.679 301.159 384.596 305.488ZM392.73 299.883L388.629 302.549C385.257 297.627 380.882 293.73 375.504 290.859C370.172 287.943 364.384 286.484 358.141 286.484C351.441 286.484 345.266 288.148 339.615 291.475C333.964 294.756 329.475 299.222 326.148 304.873C322.867 310.524 321.227 316.699 321.227 323.398C321.227 330.098 322.867 336.273 326.148 341.924C329.475 347.575 333.964 352.064 339.615 355.391C345.266 358.672 351.441 360.312 358.141 360.312C364.384 360.312 370.195 358.854 375.572 355.938C380.95 353.021 385.325 349.079 388.697 344.111L392.73 346.914C388.902 352.565 383.935 357.031 377.828 360.312C371.767 363.594 365.204 365.234 358.141 365.234C350.576 365.234 343.58 363.366 337.154 359.629C330.729 355.892 325.647 350.811 321.91 344.385C318.173 337.959 316.305 330.964 316.305 323.398C316.305 315.833 318.173 308.838 321.91 302.412C325.647 295.986 330.729 290.905 337.154 287.168C343.58 283.431 350.576 281.562 358.141 281.562C365.204 281.562 371.767 283.203 377.828 286.484C383.935 289.766 388.902 294.232 392.73 299.883ZM400.934 294.414L396.832 297.08C392.548 290.791 386.988 285.824 380.152 282.178C373.362 278.486 366.025 276.641 358.141 276.641C351.806 276.641 345.745 277.871 339.957 280.332C334.169 282.793 329.179 286.12 324.986 290.312C320.839 294.46 317.535 299.427 315.074 305.215C312.613 311.003 311.383 317.064 311.383 323.398C311.383 329.733 312.613 335.794 315.074 341.582C317.535 347.37 320.839 352.36 324.986 356.553C329.179 360.7 334.169 364.004 339.957 366.465C345.745 368.926 351.806 370.156 358.141 370.156C366.07 370.156 373.43 368.311 380.221 364.619C387.011 360.928 392.548 355.938 396.832 349.648L400.797 352.588C396.057 359.515 389.928 365.007 382.408 369.062C374.934 373.073 366.845 375.078 358.141 375.078C348.798 375.078 340.162 372.777 332.232 368.174C324.303 363.525 318.014 357.236 313.365 349.307C308.762 341.377 306.461 332.741 306.461 323.398C306.461 314.056 308.762 305.42 313.365 297.49C318.014 289.561 324.303 283.294 332.232 278.691C340.162 274.043 348.798 271.719 358.141 271.719C366.891 271.719 375.025 273.77 382.545 277.871C390.064 281.927 396.194 287.441 400.934 294.414ZM409 288.809L404.898 291.475C399.703 283.864 392.981 277.848 384.732 273.428C376.529 269.007 367.665 266.797 358.141 266.797C350.484 266.797 343.147 268.301 336.129 271.309C329.156 274.271 323.141 278.281 318.082 283.34C313.023 288.398 308.99 294.437 305.982 301.455C303.02 308.428 301.539 315.742 301.539 323.398C301.539 331.055 303.02 338.392 305.982 345.41C308.99 352.383 313.023 358.398 318.082 363.457C323.141 368.516 329.156 372.549 336.129 375.557C343.147 378.519 350.484 380 358.141 380C367.665 380 376.552 377.767 384.801 373.301C393.049 368.835 399.771 362.796 404.967 355.186L408.932 358.193C403.281 366.396 395.989 372.913 387.057 377.744C378.124 382.529 368.486 384.922 358.141 384.922C349.801 384.922 341.826 383.281 334.215 380C326.65 376.764 320.11 372.412 314.596 366.943C309.127 361.429 304.752 354.889 301.471 347.324C298.235 339.714 296.617 331.738 296.617 323.398C296.617 315.059 298.235 307.106 301.471 299.541C304.752 291.93 309.127 285.391 314.596 279.922C320.11 274.408 326.65 270.033 334.215 266.797C341.826 263.516 349.801 261.875 358.141 261.875C368.531 261.875 378.193 264.29 387.125 269.121C396.057 273.952 403.349 280.514 409 288.809ZM443.111 380H438.189V266.797H443.111V380ZM433.268 380H428.346V266.797H433.268V380ZM423.424 380H418.502V266.797H423.424V380ZM452.955 355.391H505.318V360.312H452.955V365.234H505.318V370.156H452.955V375.078H505.318V380H448.033V266.797H505.318V271.719H452.955V276.641H505.318V281.562H452.955V286.484H505.318V291.406H452.955V311.094H479.82V316.016H452.955V320.938H479.82V325.859H452.955V330.781H479.82V335.703H452.955V355.391ZM597.877 325.518L592.955 317.383V266.797H597.877V325.518ZM607.721 341.65L602.799 333.379V266.797H607.721V341.65ZM617.564 357.988L612.643 349.648V266.797H617.564V357.988ZM547.018 321.279L551.939 329.414V380H547.018V321.279ZM537.174 305.146L542.096 313.418V380H537.174V305.146ZM527.33 288.809L532.252 297.148V380H527.33V288.809ZM529.039 266.797H534.781L604.371 380H598.629L529.039 266.797ZM540.66 266.797H546.471L615.992 380H610.113L540.66 266.797ZM552.213 266.797H557.955L622.486 372.002V266.797H627.408V380C627.408 380 625.471 380 621.598 380L552.213 266.797ZM522.408 274.795V380H517.486V266.797C517.486 266.797 519.446 266.797 523.365 266.797L592.75 380H587.076L522.408 274.795ZM638.209 271.719V266.797H712.037V271.719H638.209ZM638.209 281.562V276.641H712.037V281.562H638.209ZM638.209 291.406V286.484H712.037V291.406H692.35V380H687.428V291.406H682.506V380H677.584V291.406H672.662V380H667.74V291.406H662.818V380H657.896V291.406H638.209ZM747.857 380H742.936V266.797H747.857V380ZM738.014 380H733.092V266.797H738.014V380ZM728.17 380H723.248V266.797H728.17V380ZM757.701 355.391H810.064V360.312H757.701V365.234H810.064V370.156H757.701V375.078H810.064V380H752.779V266.797H810.064V271.719H757.701V276.641H810.064V281.562H757.701V286.484H810.064V291.406H757.701V311.094H784.566V316.016H757.701V320.938H784.566V325.859H757.701V330.781H784.566V335.703H757.701V355.391ZM859.42 323.672H889.088C893.6 323.672 897.405 322.214 900.504 319.297C903.648 316.38 905.221 312.233 905.221 306.855C905.221 302.891 903.58 299.336 900.299 296.191C897.018 293.001 893.281 291.406 889.088 291.406H846.842V380H841.92V286.484H889.088C894.648 286.484 899.547 288.558 903.785 292.705C908.023 296.807 910.143 301.523 910.143 306.855C910.143 313.418 908.092 318.682 903.99 322.646C899.889 326.611 894.921 328.594 889.088 328.594H859.42V323.672ZM859.42 333.516H889.088C896.197 333.516 902.304 331.032 907.408 326.064C912.512 321.051 915.064 314.648 915.064 306.855C915.064 300.156 912.444 294.277 907.203 289.219C902.008 284.115 895.969 281.562 889.088 281.562H836.998V380H832.076V276.641H889.088C894.511 276.641 899.592 278.031 904.332 280.811C909.117 283.59 912.923 287.327 915.748 292.021C918.574 296.67 919.986 301.615 919.986 306.855C919.986 315.833 916.933 323.353 910.826 329.414C904.765 335.43 897.519 338.438 889.088 338.438H859.42V333.516ZM859.42 343.359H889.088C895.468 343.359 901.393 341.787 906.861 338.643C912.33 335.498 916.705 331.123 919.986 325.518C923.268 319.867 924.908 313.646 924.908 306.855C924.908 300.703 923.268 294.938 919.986 289.561C916.751 284.137 912.376 279.808 906.861 276.572C901.347 273.337 895.423 271.719 889.088 271.719H827.154V380H822.232V266.797H889.088C896.243 266.797 902.965 268.643 909.254 272.334C915.543 275.98 920.533 280.902 924.225 287.1C927.962 293.252 929.83 299.837 929.83 306.855C929.83 314.967 928.076 322.1 924.566 328.252C921.103 334.404 916.386 339.212 910.416 342.676L923.131 380H917.936L905.768 345C903.945 345.729 902.555 346.23 901.598 346.504L913.014 380H907.818L896.676 347.666C896.266 347.757 894.807 347.917 892.301 348.145L902.896 380H897.701L887.242 348.281H882.799L892.779 380H887.584L877.535 348.281H859.42V343.359ZM856.686 380H851.764V296.328H889.088C892.141 296.328 894.762 297.376 896.949 299.473C899.182 301.523 900.299 303.984 900.299 306.855C900.299 314.785 896.562 318.75 889.088 318.75H859.42V313.828H889.088C891.048 313.828 892.574 313.327 893.668 312.324C894.807 311.276 895.377 309.453 895.377 306.855C895.377 305.26 894.762 303.939 893.531 302.891C892.346 301.797 890.865 301.25 889.088 301.25H856.686V380Z" fill="black"/>
<path d="M150.602 102.869H155.523V162H150.602V102.869ZM170.289 102.869H175.211V162H170.289V102.869ZM160.445 102.869H165.367V162H160.445V102.869ZM145.68 102.869V162C137.021 165.281 128.043 166.922 118.746 166.922C110.68 166.922 102.955 165.441 95.5723 162.479C88.1895 159.516 81.6953 155.415 76.0898 150.174C70.4844 144.887 65.9954 138.37 62.623 130.623C59.2962 122.83 57.6328 114.422 57.6328 105.398C57.6328 97.0586 59.2507 89.1061 62.4863 81.541C65.7676 73.9303 70.1426 67.3906 75.6113 61.9219C81.1257 56.4076 87.6654 52.0326 95.2305 48.7969C102.841 45.5156 110.816 43.875 119.156 43.875C129.547 43.875 139.208 46.2904 148.141 51.1211C157.073 55.9518 164.365 62.5143 170.016 70.8086L165.914 73.4746C160.719 65.8639 153.997 59.8483 145.748 55.4277C137.545 51.0072 128.681 48.7969 119.156 48.7969C111.5 48.7969 104.163 50.3008 97.1445 53.3086C90.1719 56.2708 84.1562 60.2812 79.0977 65.3398C74.0391 70.3984 70.0059 76.4368 66.998 83.4551C64.0358 90.4277 62.5547 97.7422 62.5547 105.398C62.5547 113.647 64.0814 121.349 67.1348 128.504C70.2337 135.659 74.3353 141.652 79.4395 146.482C84.5892 151.313 90.5592 155.118 97.3496 157.898C104.14 160.633 111.204 162 118.541 162C126.243 162 133.648 160.792 140.758 158.377V153.66C133.967 155.939 126.835 157.078 119.361 157.078C113.938 157.078 108.652 156.326 103.502 154.822C98.3978 153.273 93.6582 151.017 89.2832 148.055C84.9538 145.047 81.1484 141.492 77.8672 137.391C74.6315 133.243 72.0794 128.436 70.2109 122.967C68.388 117.452 67.4766 111.596 67.4766 105.398C67.4766 96.056 69.778 87.4199 74.3809 79.4902C79.0293 71.5605 85.3184 65.2943 93.248 60.6914C101.178 56.043 109.814 53.7188 119.156 53.7188C127.906 53.7188 136.041 55.7695 143.561 59.8711C151.08 63.9271 157.21 69.4414 161.949 76.4141L157.848 79.0801C153.564 72.791 148.004 67.8236 141.168 64.1777C134.378 60.4863 127.04 58.6406 119.156 58.6406C112.822 58.6406 106.76 59.8711 100.973 62.332C95.1849 64.793 90.1947 68.1198 86.002 72.3125C81.8548 76.4596 78.5508 81.4271 76.0898 87.2148C73.6289 93.0026 72.3984 99.0638 72.3984 105.398C72.3984 111.095 73.2188 116.45 74.8594 121.463C76.5456 126.43 78.847 130.783 81.7637 134.52C84.7259 138.211 88.1667 141.401 92.0859 144.09C96.0052 146.733 100.266 148.738 104.869 150.105C109.518 151.473 114.28 152.156 119.156 152.156C126.721 152.156 133.922 150.88 140.758 148.328V143.406C134.013 146.004 126.972 147.303 119.635 147.303C114.075 147.303 108.766 146.368 103.707 144.5C98.6484 142.586 94.1367 139.897 90.1719 136.434C86.2526 132.97 83.1309 128.549 80.8066 123.172C78.4824 117.794 77.3203 111.87 77.3203 105.398C77.3203 97.8333 79.1888 90.8379 82.9258 84.4121C86.6628 77.9863 91.7441 72.9049 98.1699 69.168C104.596 65.431 111.591 63.5625 119.156 63.5625C126.22 63.5625 132.783 65.2031 138.844 68.4844C144.951 71.7656 149.918 76.2318 153.746 81.8828L149.645 84.5488C146.272 79.627 141.897 75.7305 136.52 72.8594C131.188 69.9427 125.4 68.4844 119.156 68.4844C112.457 68.4844 106.282 70.1478 100.631 73.4746C94.9798 76.7559 90.4909 81.222 87.1641 86.873C83.8828 92.5241 82.2422 98.6992 82.2422 105.398C82.2422 110.047 82.903 114.376 84.2246 118.387C85.5462 122.397 87.3691 125.861 89.6934 128.777C92.0176 131.694 94.7292 134.178 97.8281 136.229C100.973 138.279 104.345 139.829 107.945 140.877C111.546 141.88 115.283 142.381 119.156 142.381C126.858 142.381 134.059 140.854 140.758 137.801V133.084C134.286 135.955 127.291 137.391 119.771 137.391C115.442 137.391 111.363 136.73 107.535 135.408C103.707 134.087 100.243 132.15 97.1445 129.598C94.0911 127.046 91.653 123.696 89.8301 119.549C88.0527 115.356 87.1641 110.639 87.1641 105.398C87.1641 101.069 88.0072 96.9447 89.6934 93.0254C91.3796 89.0605 93.6582 85.6426 96.5293 82.7715C99.4004 79.9004 102.796 77.6217 106.715 75.9355C110.68 74.2493 114.827 73.4062 119.156 73.4062C124.579 73.4062 129.615 74.6823 134.264 77.2344C138.912 79.7409 142.695 83.1589 145.611 87.4883L141.578 90.1543C139.117 86.5085 135.904 83.6374 131.939 81.541C128.02 79.3991 123.759 78.3281 119.156 78.3281C111.682 78.3281 105.302 80.9714 100.016 86.2578C94.7292 91.5443 92.0859 97.9245 92.0859 105.398C92.0859 110.001 92.8379 114.08 94.3418 117.635C95.8457 121.144 97.8965 123.969 100.494 126.111C103.137 128.208 106.054 129.803 109.244 130.896C112.48 131.945 115.943 132.469 119.635 132.469C127.2 132.469 134.241 130.896 140.758 127.752V102.869H145.68ZM227.164 86.2578C221.878 91.5443 219.234 97.9245 219.234 105.398C219.234 112.872 221.878 119.253 227.164 124.539C232.451 129.826 238.831 132.469 246.305 132.469C253.779 132.469 260.159 129.826 265.445 124.539C270.732 119.253 273.375 112.872 273.375 105.398C273.375 97.9245 270.732 91.5443 265.445 86.2578C260.159 80.9714 253.779 78.3281 246.305 78.3281C238.831 78.3281 232.451 80.9714 227.164 86.2578ZM216.842 117.84C215.156 113.875 214.312 109.728 214.312 105.398C214.312 101.069 215.156 96.9447 216.842 93.0254C218.528 89.0605 220.807 85.6426 223.678 82.7715C226.549 79.9004 229.944 77.6217 233.863 75.9355C237.828 74.2493 241.975 73.4062 246.305 73.4062C250.634 73.4062 254.758 74.2493 258.678 75.9355C262.643 77.6217 266.061 79.9004 268.932 82.7715C271.803 85.6426 274.081 89.0605 275.768 93.0254C277.454 96.9447 278.297 101.069 278.297 105.398C278.297 109.728 277.454 113.875 275.768 117.84C274.081 121.759 271.803 125.154 268.932 128.025C266.061 130.896 262.643 133.175 258.678 134.861C254.758 136.548 250.634 137.391 246.305 137.391C241.975 137.391 237.828 136.548 233.863 134.861C229.944 133.175 226.549 130.896 223.678 128.025C220.807 125.154 218.528 121.759 216.842 117.84ZM214.312 86.873C211.031 92.5241 209.391 98.6992 209.391 105.398C209.391 112.098 211.031 118.273 214.312 123.924C217.639 129.575 222.128 134.064 227.779 137.391C233.43 140.672 239.605 142.312 246.305 142.312C253.004 142.312 259.179 140.672 264.83 137.391C270.481 134.064 274.947 129.575 278.229 123.924C281.555 118.273 283.219 112.098 283.219 105.398C283.219 98.6992 281.555 92.5241 278.229 86.873C274.947 81.222 270.481 76.7559 264.83 73.4746C259.179 70.1478 253.004 68.4844 246.305 68.4844C239.605 68.4844 233.43 70.1478 227.779 73.4746C222.128 76.7559 217.639 81.222 214.312 86.873ZM210.074 126.385C206.337 119.959 204.469 112.964 204.469 105.398C204.469 97.8333 206.337 90.8379 210.074 84.4121C213.811 77.9863 218.893 72.9049 225.318 69.168C231.744 65.431 238.74 63.5625 246.305 63.5625C253.87 63.5625 260.865 65.431 267.291 69.168C273.717 72.9049 278.798 77.9863 282.535 84.4121C286.272 90.8379 288.141 97.8333 288.141 105.398C288.141 112.964 286.272 119.959 282.535 126.385C278.798 132.811 273.717 137.892 267.291 141.629C260.865 145.366 253.87 147.234 246.305 147.234C238.74 147.234 231.744 145.366 225.318 141.629C218.893 137.892 213.811 132.811 210.074 126.385ZM203.238 87.2148C200.777 93.0026 199.547 99.0638 199.547 105.398C199.547 111.733 200.777 117.794 203.238 123.582C205.699 129.37 209.003 134.36 213.15 138.553C217.343 142.7 222.333 146.004 228.121 148.465C233.909 150.926 239.97 152.156 246.305 152.156C252.639 152.156 258.701 150.926 264.488 148.465C270.276 146.004 275.243 142.7 279.391 138.553C283.583 134.36 286.91 129.37 289.371 123.582C291.832 117.794 293.062 111.733 293.062 105.398C293.062 99.0638 291.832 93.0026 289.371 87.2148C286.91 81.4271 283.583 76.4596 279.391 72.3125C275.243 68.1198 270.276 64.793 264.488 62.332C258.701 59.8711 252.639 58.6406 246.305 58.6406C239.97 58.6406 233.909 59.8711 228.121 62.332C222.333 64.793 217.343 68.1198 213.15 72.3125C209.003 76.4596 205.699 81.4271 203.238 87.2148ZM201.529 131.307C196.926 123.377 194.625 114.741 194.625 105.398C194.625 96.056 196.926 87.4199 201.529 79.4902C206.178 71.5605 212.467 65.2943 220.396 60.6914C228.326 56.043 236.962 53.7188 246.305 53.7188C255.647 53.7188 264.283 56.043 272.213 60.6914C280.143 65.2943 286.409 71.5605 291.012 79.4902C295.66 87.4199 297.984 96.056 297.984 105.398C297.984 114.741 295.66 123.377 291.012 131.307C286.409 139.236 280.143 145.525 272.213 150.174C264.283 154.777 255.647 157.078 246.305 157.078C236.962 157.078 228.326 154.777 220.396 150.174C212.467 145.525 206.178 139.236 201.529 131.307ZM194.146 83.4551C191.184 90.4277 189.703 97.7422 189.703 105.398C189.703 113.055 191.184 120.392 194.146 127.41C197.154 134.383 201.188 140.398 206.246 145.457C211.305 150.516 217.32 154.549 224.293 157.557C231.311 160.519 238.648 162 246.305 162C253.961 162 261.275 160.519 268.248 157.557C275.266 154.549 281.305 150.516 286.363 145.457C291.422 140.398 295.432 134.383 298.395 127.41C301.402 120.392 302.906 113.055 302.906 105.398C302.906 97.7422 301.402 90.4277 298.395 83.4551C295.432 76.4368 291.422 70.3984 286.363 65.3398C281.305 60.2812 275.266 56.2708 268.248 53.3086C261.275 50.3008 253.961 48.7969 246.305 48.7969C238.648 48.7969 231.311 50.3008 224.293 53.3086C217.32 56.2708 211.305 60.2812 206.246 65.3398C201.188 70.3984 197.154 76.4368 194.146 83.4551ZM189.635 129.324C186.399 121.714 184.781 113.738 184.781 105.398C184.781 97.0586 186.399 89.1061 189.635 81.541C192.916 73.9303 197.291 67.3906 202.76 61.9219C208.274 56.4076 214.814 52.0326 222.379 48.7969C229.99 45.5156 237.965 43.875 246.305 43.875C254.645 43.875 262.597 45.5156 270.162 48.7969C277.773 52.0326 284.312 56.4076 289.781 61.9219C295.296 67.3906 299.671 73.9303 302.906 81.541C306.188 89.1061 307.828 97.0586 307.828 105.398C307.828 113.738 306.188 121.714 302.906 129.324C299.671 136.889 295.296 143.429 289.781 148.943C284.312 154.412 277.773 158.764 270.162 162C262.597 165.281 254.645 166.922 246.305 166.922C237.965 166.922 229.99 165.281 222.379 162C214.814 158.764 208.274 154.412 202.76 148.943C197.291 143.429 192.916 136.889 189.635 129.324ZM317.809 98.0156V93.0938H371.949V98.0156H317.809ZM317.809 107.859V102.938H371.949V107.859H317.809ZM317.809 117.703V112.781H371.949V117.703H317.809ZM383.434 125.291V120.027L460.475 89.5391L383.434 59.0508V53.7871L467.105 86.873V92.2051L383.434 125.291ZM383.434 135.887V130.555L467.105 97.4688V102.732L383.434 135.887ZM383.434 157.078V151.746L467.105 118.66V123.924L383.434 157.078ZM383.434 146.482V141.219L467.105 108.064V113.328L383.434 146.482ZM383.434 69.5781V64.3145L448.785 90.1543L442.496 92.957L383.434 69.5781ZM383.434 80.2422V74.9102L435.797 95.623L429.029 98.2207L383.434 80.2422ZM383.434 90.7695V85.5059L422.262 100.818L415.357 103.416L383.434 90.7695ZM507.779 132.469V78.3281C507.779 78.3281 518.967 78.3281 541.344 78.3281C546.767 78.3281 551.415 80.9941 555.289 86.3262C559.208 91.6126 561.168 97.9701 561.168 105.398C561.168 112.872 559.208 119.253 555.289 124.539C551.415 129.826 546.767 132.469 541.344 132.469H507.779ZM512.701 127.547H541.344C545.4 127.547 548.863 125.382 551.734 121.053C554.651 116.723 556.109 111.505 556.109 105.398C556.109 99.2461 554.651 94.028 551.734 89.7441C548.863 85.4147 545.4 83.25 541.344 83.25H512.701V127.547ZM502.857 137.391H541.344C548.134 137.391 553.967 134.269 558.844 128.025C563.766 121.736 566.227 114.194 566.227 105.398C566.227 99.6107 565.087 94.2559 562.809 89.334C560.576 84.4121 557.545 80.5384 553.717 77.7129C549.934 74.8418 545.81 73.4062 541.344 73.4062H502.857V137.391ZM497.936 142.312V68.4844H541.344C546.676 68.4844 551.643 70.125 556.246 73.4062C560.849 76.6875 564.495 81.1764 567.184 86.873C569.918 92.5241 571.285 98.6992 571.285 105.398C571.285 112.052 569.918 118.227 567.184 123.924C564.495 129.62 560.849 134.109 556.246 137.391C551.643 140.672 546.676 142.312 541.344 142.312H497.936ZM493.014 147.234H541.344C547.587 147.234 553.375 145.366 558.707 141.629C564.085 137.892 568.368 132.811 571.559 126.385C574.749 119.959 576.344 112.964 576.344 105.398C576.344 97.8789 574.749 90.9062 571.559 84.4805C568.368 78.0091 564.085 72.9049 558.707 69.168C553.329 65.431 547.542 63.5625 541.344 63.5625H493.014V147.234ZM488.092 152.156V58.6406H541.344C548.453 58.6406 555.084 60.737 561.236 64.9297C567.389 69.0768 572.288 74.7507 575.934 81.9512C579.579 89.1517 581.402 96.9674 581.402 105.398C581.402 113.829 579.579 121.645 575.934 128.846C572.288 136.046 567.389 141.743 561.236 145.936C555.084 150.083 548.453 152.156 541.344 152.156H488.092ZM483.17 157.078H541.344C547.314 157.078 553.079 155.711 558.639 152.977C564.199 150.242 569.007 146.574 573.062 141.971C577.118 137.368 580.354 131.876 582.77 125.496C585.23 119.07 586.461 112.371 586.461 105.398C586.461 98.4258 585.23 91.7493 582.77 85.3691C580.354 78.9889 577.118 73.4974 573.062 68.8945C569.007 64.2461 564.199 60.5547 558.639 57.8203C553.079 55.0859 547.314 53.7188 541.344 53.7188H483.17V157.078ZM541.344 162H478.248V48.7969H541.344C550.23 48.7969 558.525 51.3262 566.227 56.3848C573.928 61.4434 580.058 68.3249 584.615 77.0293C589.218 85.7337 591.52 95.1901 591.52 105.398C591.52 113.055 590.152 120.392 587.418 127.41C584.729 134.383 581.129 140.398 576.617 145.457C572.105 150.516 566.751 154.549 560.553 157.557C554.4 160.519 547.997 162 541.344 162ZM644.156 128.777L646.139 123.855H662.955L664.938 128.777H644.156ZM640.328 138.621L642.242 133.699H666.783L668.902 138.621H640.328ZM636.5 148.465L638.414 143.543H670.68L672.73 148.465H636.5ZM596.51 162H591.178L635.953 48.7969H641.285L685.992 162H680.729L638.619 55.4277L596.51 162ZM639.234 67.1172L642.037 73.4062L607.037 162H601.773L639.234 67.1172ZM644.703 80.1055L647.301 86.873L617.701 162H612.369L644.703 80.1055ZM649.898 93.6406L652.496 100.545L628.229 162H622.965L649.898 93.6406ZM717.779 162H712.447L667.74 48.7969H673.004L717.779 162ZM662.408 48.7969L707.184 162H701.92L657.145 48.7969H662.408ZM651.812 48.7969L696.588 162H691.256L646.549 48.7969H651.812ZM724.205 53.7188V48.7969H798.033V53.7188H724.205ZM724.205 63.5625V58.6406H798.033V63.5625H724.205ZM724.205 73.4062V68.4844H798.033V73.4062H778.346V162H773.424V73.4062H768.502V162H763.58V73.4062H758.658V162H753.736V73.4062H748.814V162H743.893V73.4062H724.205ZM858.121 128.777L860.104 123.855H876.92L878.902 128.777H858.121ZM854.293 138.621L856.207 133.699H880.748L882.867 138.621H854.293ZM850.465 148.465L852.379 143.543H884.645L886.695 148.465H850.465ZM810.475 162H805.143L849.918 48.7969H855.25L899.957 162H894.693L852.584 55.4277L810.475 162ZM853.199 67.1172L856.002 73.4062L821.002 162H815.738L853.199 67.1172ZM858.668 80.1055L861.266 86.873L831.666 162H826.334L858.668 80.1055ZM863.863 93.6406L866.461 100.545L842.193 162H836.93L863.863 93.6406ZM931.744 162H926.412L881.705 48.7969H886.969L931.744 162ZM876.373 48.7969L921.148 162H915.885L871.109 48.7969H876.373ZM865.777 48.7969L910.553 162H905.221L860.514 48.7969H865.777ZM384.596 305.488L380.562 308.154C378.102 304.508 374.889 301.637 370.924 299.541C367.005 297.399 362.743 296.328 358.141 296.328C350.667 296.328 344.286 298.971 339 304.258C333.714 309.544 331.07 315.924 331.07 323.398C331.07 330.872 333.714 337.253 339 342.539C344.286 347.826 350.667 350.469 358.141 350.469C362.743 350.469 367.005 349.398 370.924 347.256C374.889 345.114 378.102 342.22 380.562 338.574L384.527 341.445C381.611 345.729 377.828 349.124 373.18 351.631C368.531 354.137 363.518 355.391 358.141 355.391C353.811 355.391 349.664 354.548 345.699 352.861C341.78 351.175 338.385 348.896 335.514 346.025C332.643 343.154 330.364 339.759 328.678 335.84C326.992 331.875 326.148 327.728 326.148 323.398C326.148 319.069 326.992 314.945 328.678 311.025C330.364 307.061 332.643 303.643 335.514 300.771C338.385 297.9 341.78 295.622 345.699 293.936C349.664 292.249 353.811 291.406 358.141 291.406C363.564 291.406 368.6 292.682 373.248 295.234C377.896 297.741 381.679 301.159 384.596 305.488ZM392.73 299.883L388.629 302.549C385.257 297.627 380.882 293.73 375.504 290.859C370.172 287.943 364.384 286.484 358.141 286.484C351.441 286.484 345.266 288.148 339.615 291.475C333.964 294.756 329.475 299.222 326.148 304.873C322.867 310.524 321.227 316.699 321.227 323.398C321.227 330.098 322.867 336.273 326.148 341.924C329.475 347.575 333.964 352.064 339.615 355.391C345.266 358.672 351.441 360.312 358.141 360.312C364.384 360.312 370.195 358.854 375.572 355.938C380.95 353.021 385.325 349.079 388.697 344.111L392.73 346.914C388.902 352.565 383.935 357.031 377.828 360.312C371.767 363.594 365.204 365.234 358.141 365.234C350.576 365.234 343.58 363.366 337.154 359.629C330.729 355.892 325.647 350.811 321.91 344.385C318.173 337.959 316.305 330.964 316.305 323.398C316.305 315.833 318.173 308.838 321.91 302.412C325.647 295.986 330.729 290.905 337.154 287.168C343.58 283.431 350.576 281.562 358.141 281.562C365.204 281.562 371.767 283.203 377.828 286.484C383.935 289.766 388.902 294.232 392.73 299.883ZM400.934 294.414L396.832 297.08C392.548 290.791 386.988 285.824 380.152 282.178C373.362 278.486 366.025 276.641 358.141 276.641C351.806 276.641 345.745 277.871 339.957 280.332C334.169 282.793 329.179 286.12 324.986 290.312C320.839 294.46 317.535 299.427 315.074 305.215C312.613 311.003 311.383 317.064 311.383 323.398C311.383 329.733 312.613 335.794 315.074 341.582C317.535 347.37 320.839 352.36 324.986 356.553C329.179 360.7 334.169 364.004 339.957 366.465C345.745 368.926 351.806 370.156 358.141 370.156C366.07 370.156 373.43 368.311 380.221 364.619C387.011 360.928 392.548 355.938 396.832 349.648L400.797 352.588C396.057 359.515 389.928 365.007 382.408 369.062C374.934 373.073 366.845 375.078 358.141 375.078C348.798 375.078 340.162 372.777 332.232 368.174C324.303 363.525 318.014 357.236 313.365 349.307C308.762 341.377 306.461 332.741 306.461 323.398C306.461 314.056 308.762 305.42 313.365 297.49C318.014 289.561 324.303 283.294 332.232 278.691C340.162 274.043 348.798 271.719 358.141 271.719C366.891 271.719 375.025 273.77 382.545 277.871C390.064 281.927 396.194 287.441 400.934 294.414ZM409 288.809L404.898 291.475C399.703 283.864 392.981 277.848 384.732 273.428C376.529 269.007 367.665 266.797 358.141 266.797C350.484 266.797 343.147 268.301 336.129 271.309C329.156 274.271 323.141 278.281 318.082 283.34C313.023 288.398 308.99 294.437 305.982 301.455C303.02 308.428 301.539 315.742 301.539 323.398C301.539 331.055 303.02 338.392 305.982 345.41C308.99 352.383 313.023 358.398 318.082 363.457C323.141 368.516 329.156 372.549 336.129 375.557C343.147 378.519 350.484 380 358.141 380C367.665 380 376.552 377.767 384.801 373.301C393.049 368.835 399.771 362.796 404.967 355.186L408.932 358.193C403.281 366.396 395.989 372.913 387.057 377.744C378.124 382.529 368.486 384.922 358.141 384.922C349.801 384.922 341.826 383.281 334.215 380C326.65 376.764 320.11 372.412 314.596 366.943C309.127 361.429 304.752 354.889 301.471 347.324C298.235 339.714 296.617 331.738 296.617 323.398C296.617 315.059 298.235 307.106 301.471 299.541C304.752 291.93 309.127 285.391 314.596 279.922C320.11 274.408 326.65 270.033 334.215 266.797C341.826 263.516 349.801 261.875 358.141 261.875C368.531 261.875 378.193 264.29 387.125 269.121C396.057 273.952 403.349 280.514 409 288.809ZM443.111 380H438.189V266.797H443.111V380ZM433.268 380H428.346V266.797H433.268V380ZM423.424 380H418.502V266.797H423.424V380ZM452.955 355.391H505.318V360.312H452.955V365.234H505.318V370.156H452.955V375.078H505.318V380H448.033V266.797H505.318V271.719H452.955V276.641H505.318V281.562H452.955V286.484H505.318V291.406H452.955V311.094H479.82V316.016H452.955V320.938H479.82V325.859H452.955V330.781H479.82V335.703H452.955V355.391ZM597.877 325.518L592.955 317.383V266.797H597.877V325.518ZM607.721 341.65L602.799 333.379V266.797H607.721V341.65ZM617.564 357.988L612.643 349.648V266.797H617.564V357.988ZM547.018 321.279L551.939 329.414V380H547.018V321.279ZM537.174 305.146L542.096 313.418V380H537.174V305.146ZM527.33 288.809L532.252 297.148V380H527.33V288.809ZM529.039 266.797H534.781L604.371 380H598.629L529.039 266.797ZM540.66 266.797H546.471L615.992 380H610.113L540.66 266.797ZM552.213 266.797H557.955L622.486 372.002V266.797H627.408V380C627.408 380 625.471 380 621.598 380L552.213 266.797ZM522.408 274.795V380H517.486V266.797C517.486 266.797 519.446 266.797 523.365 266.797L592.75 380H587.076L522.408 274.795ZM638.209 271.719V266.797H712.037V271.719H638.209ZM638.209 281.562V276.641H712.037V281.562H638.209ZM638.209 291.406V286.484H712.037V291.406H692.35V380H687.428V291.406H682.506V380H677.584V291.406H672.662V380H667.74V291.406H662.818V380H657.896V291.406H638.209ZM747.857 380H742.936V266.797H747.857V380ZM738.014 380H733.092V266.797H738.014V380ZM728.17 380H723.248V266.797H728.17V380ZM757.701 355.391H810.064V360.312H757.701V365.234H810.064V370.156H757.701V375.078H810.064V380H752.779V266.797H810.064V271.719H757.701V276.641H810.064V281.562H757.701V286.484H810.064V291.406H757.701V311.094H784.566V316.016H757.701V320.938H784.566V325.859H757.701V330.781H784.566V335.703H757.701V355.391ZM859.42 323.672H889.088C893.6 323.672 897.405 322.214 900.504 319.297C903.648 316.38 905.221 312.233 905.221 306.855C905.221 302.891 903.58 299.336 900.299 296.191C897.018 293.001 893.281 291.406 889.088 291.406H846.842V380H841.92V286.484H889.088C894.648 286.484 899.547 288.558 903.785 292.705C908.023 296.807 910.143 301.523 910.143 306.855C910.143 313.418 908.092 318.682 903.99 322.646C899.889 326.611 894.921 328.594 889.088 328.594H859.42V323.672ZM859.42 333.516H889.088C896.197 333.516 902.304 331.032 907.408 326.064C912.512 321.051 915.064 314.648 915.064 306.855C915.064 300.156 912.444 294.277 907.203 289.219C902.008 284.115 895.969 281.562 889.088 281.562H836.998V380H832.076V276.641H889.088C894.511 276.641 899.592 278.031 904.332 280.811C909.117 283.59 912.923 287.327 915.748 292.021C918.574 296.67 919.986 301.615 919.986 306.855C919.986 315.833 916.933 323.353 910.826 329.414C904.765 335.43 897.519 338.438 889.088 338.438H859.42V333.516ZM859.42 343.359H889.088C895.468 343.359 901.393 341.787 906.861 338.643C912.33 335.498 916.705 331.123 919.986 325.518C923.268 319.867 924.908 313.646 924.908 306.855C924.908 300.703 923.268 294.938 919.986 289.561C916.751 284.137 912.376 279.808 906.861 276.572C901.347 273.337 895.423 271.719 889.088 271.719H827.154V380H822.232V266.797H889.088C896.243 266.797 902.965 268.643 909.254 272.334C915.543 275.98 920.533 280.902 924.225 287.1C927.962 293.252 929.83 299.837 929.83 306.855C929.83 314.967 928.076 322.1 924.566 328.252C921.103 334.404 916.386 339.212 910.416 342.676L923.131 380H917.936L905.768 345C903.945 345.729 902.555 346.23 901.598 346.504L913.014 380H907.818L896.676 347.666C896.266 347.757 894.807 347.917 892.301 348.145L902.896 380H897.701L887.242 348.281H882.799L892.779 380H887.584L877.535 348.281H859.42V343.359ZM856.686 380H851.764V296.328H889.088C892.141 296.328 894.762 297.376 896.949 299.473C899.182 301.523 900.299 303.984 900.299 306.855C900.299 314.785 896.562 318.75 889.088 318.75H859.42V313.828H889.088C891.048 313.828 892.574 313.327 893.668 312.324C894.807 311.276 895.377 309.453 895.377 306.855C895.377 305.26 894.762 303.939 893.531 302.891C892.346 301.797 890.865 301.25 889.088 301.25H856.686V380Z" fill="#1E2E32" fill-opacity="0.2"/>
<path d="M169.602 102.869H174.523V162H169.602V102.869ZM189.289 102.869H194.211V162H189.289V102.869ZM179.445 102.869H184.367V162H179.445V102.869ZM164.68 102.869V162C156.021 165.281 147.043 166.922 137.746 166.922C129.68 166.922 121.955 165.441 114.572 162.479C107.189 159.516 100.695 155.415 95.0898 150.174C89.4844 144.887 84.9954 138.37 81.623 130.623C78.2962 122.83 76.6328 114.422 76.6328 105.398C76.6328 97.0586 78.2507 89.1061 81.4863 81.541C84.7676 73.9303 89.1426 67.3906 94.6113 61.9219C100.126 56.4076 106.665 52.0326 114.23 48.7969C121.841 45.5156 129.816 43.875 138.156 43.875C148.547 43.875 158.208 46.2904 167.141 51.1211C176.073 55.9518 183.365 62.5143 189.016 70.8086L184.914 73.4746C179.719 65.8639 172.997 59.8483 164.748 55.4277C156.545 51.0072 147.681 48.7969 138.156 48.7969C130.5 48.7969 123.163 50.3008 116.145 53.3086C109.172 56.2708 103.156 60.2812 98.0977 65.3398C93.0391 70.3984 89.0059 76.4368 85.998 83.4551C83.0358 90.4277 81.5547 97.7422 81.5547 105.398C81.5547 113.647 83.0814 121.349 86.1348 128.504C89.2337 135.659 93.3353 141.652 98.4395 146.482C103.589 151.313 109.559 155.118 116.35 157.898C123.14 160.633 130.204 162 137.541 162C145.243 162 152.648 160.792 159.758 158.377V153.66C152.967 155.939 145.835 157.078 138.361 157.078C132.938 157.078 127.652 156.326 122.502 154.822C117.398 153.273 112.658 151.017 108.283 148.055C103.954 145.047 100.148 141.492 96.8672 137.391C93.6315 133.243 91.0794 128.436 89.2109 122.967C87.388 117.452 86.4766 111.596 86.4766 105.398C86.4766 96.056 88.778 87.4199 93.3809 79.4902C98.0293 71.5605 104.318 65.2943 112.248 60.6914C120.178 56.043 128.814 53.7188 138.156 53.7188C146.906 53.7188 155.041 55.7695 162.561 59.8711C170.08 63.9271 176.21 69.4414 180.949 76.4141L176.848 79.0801C172.564 72.791 167.004 67.8236 160.168 64.1777C153.378 60.4863 146.04 58.6406 138.156 58.6406C131.822 58.6406 125.76 59.8711 119.973 62.332C114.185 64.793 109.195 68.1198 105.002 72.3125C100.855 76.4596 97.5508 81.4271 95.0898 87.2148C92.6289 93.0026 91.3984 99.0638 91.3984 105.398C91.3984 111.095 92.2188 116.45 93.8594 121.463C95.5456 126.43 97.847 130.783 100.764 134.52C103.726 138.211 107.167 141.401 111.086 144.09C115.005 146.733 119.266 148.738 123.869 150.105C128.518 151.473 133.28 152.156 138.156 152.156C145.721 152.156 152.922 150.88 159.758 148.328V143.406C153.013 146.004 145.972 147.303 138.635 147.303C133.075 147.303 127.766 146.368 122.707 144.5C117.648 142.586 113.137 139.897 109.172 136.434C105.253 132.97 102.131 128.549 99.8066 123.172C97.4824 117.794 96.3203 111.87 96.3203 105.398C96.3203 97.8333 98.1888 90.8379 101.926 84.4121C105.663 77.9863 110.744 72.9049 117.17 69.168C123.596 65.431 130.591 63.5625 138.156 63.5625C145.22 63.5625 151.783 65.2031 157.844 68.4844C163.951 71.7656 168.918 76.2318 172.746 81.8828L168.645 84.5488C165.272 79.627 160.897 75.7305 155.52 72.8594C150.188 69.9427 144.4 68.4844 138.156 68.4844C131.457 68.4844 125.282 70.1478 119.631 73.4746C113.98 76.7559 109.491 81.222 106.164 86.873C102.883 92.5241 101.242 98.6992 101.242 105.398C101.242 110.047 101.903 114.376 103.225 118.387C104.546 122.397 106.369 125.861 108.693 128.777C111.018 131.694 113.729 134.178 116.828 136.229C119.973 138.279 123.345 139.829 126.945 140.877C130.546 141.88 134.283 142.381 138.156 142.381C145.858 142.381 153.059 140.854 159.758 137.801V133.084C153.286 135.955 146.291 137.391 138.771 137.391C134.442 137.391 130.363 136.73 126.535 135.408C122.707 134.087 119.243 132.15 116.145 129.598C113.091 127.046 110.653 123.696 108.83 119.549C107.053 115.356 106.164 110.639 106.164 105.398C106.164 101.069 107.007 96.9447 108.693 93.0254C110.38 89.0605 112.658 85.6426 115.529 82.7715C118.4 79.9004 121.796 77.6217 125.715 75.9355C129.68 74.2493 133.827 73.4062 138.156 73.4062C143.579 73.4062 148.615 74.6823 153.264 77.2344C157.912 79.7409 161.695 83.1589 164.611 87.4883L160.578 90.1543C158.117 86.5085 154.904 83.6374 150.939 81.541C147.02 79.3991 142.759 78.3281 138.156 78.3281C130.682 78.3281 124.302 80.9714 119.016 86.2578C113.729 91.5443 111.086 97.9245 111.086 105.398C111.086 110.001 111.838 114.08 113.342 117.635C114.846 121.144 116.896 123.969 119.494 126.111C122.137 128.208 125.054 129.803 128.244 130.896C131.48 131.945 134.943 132.469 138.635 132.469C146.2 132.469 153.241 130.896 159.758 127.752V102.869H164.68ZM246.164 86.2578C240.878 91.5443 238.234 97.9245 238.234 105.398C238.234 112.872 240.878 119.253 246.164 124.539C251.451 129.826 257.831 132.469 265.305 132.469C272.779 132.469 279.159 129.826 284.445 124.539C289.732 119.253 292.375 112.872 292.375 105.398C292.375 97.9245 289.732 91.5443 284.445 86.2578C279.159 80.9714 272.779 78.3281 265.305 78.3281C257.831 78.3281 251.451 80.9714 246.164 86.2578ZM235.842 117.84C234.156 113.875 233.312 109.728 233.312 105.398C233.312 101.069 234.156 96.9447 235.842 93.0254C237.528 89.0605 239.807 85.6426 242.678 82.7715C245.549 79.9004 248.944 77.6217 252.863 75.9355C256.828 74.2493 260.975 73.4062 265.305 73.4062C269.634 73.4062 273.758 74.2493 277.678 75.9355C281.643 77.6217 285.061 79.9004 287.932 82.7715C290.803 85.6426 293.081 89.0605 294.768 93.0254C296.454 96.9447 297.297 101.069 297.297 105.398C297.297 109.728 296.454 113.875 294.768 117.84C293.081 121.759 290.803 125.154 287.932 128.025C285.061 130.896 281.643 133.175 277.678 134.861C273.758 136.548 269.634 137.391 265.305 137.391C260.975 137.391 256.828 136.548 252.863 134.861C248.944 133.175 245.549 130.896 242.678 128.025C239.807 125.154 237.528 121.759 235.842 117.84ZM233.312 86.873C230.031 92.5241 228.391 98.6992 228.391 105.398C228.391 112.098 230.031 118.273 233.312 123.924C236.639 129.575 241.128 134.064 246.779 137.391C252.43 140.672 258.605 142.312 265.305 142.312C272.004 142.312 278.179 140.672 283.83 137.391C289.481 134.064 293.947 129.575 297.229 123.924C300.555 118.273 302.219 112.098 302.219 105.398C302.219 98.6992 300.555 92.5241 297.229 86.873C293.947 81.222 289.481 76.7559 283.83 73.4746C278.179 70.1478 272.004 68.4844 265.305 68.4844C258.605 68.4844 252.43 70.1478 246.779 73.4746C241.128 76.7559 236.639 81.222 233.312 86.873ZM229.074 126.385C225.337 119.959 223.469 112.964 223.469 105.398C223.469 97.8333 225.337 90.8379 229.074 84.4121C232.811 77.9863 237.893 72.9049 244.318 69.168C250.744 65.431 257.74 63.5625 265.305 63.5625C272.87 63.5625 279.865 65.431 286.291 69.168C292.717 72.9049 297.798 77.9863 301.535 84.4121C305.272 90.8379 307.141 97.8333 307.141 105.398C307.141 112.964 305.272 119.959 301.535 126.385C297.798 132.811 292.717 137.892 286.291 141.629C279.865 145.366 272.87 147.234 265.305 147.234C257.74 147.234 250.744 145.366 244.318 141.629C237.893 137.892 232.811 132.811 229.074 126.385ZM222.238 87.2148C219.777 93.0026 218.547 99.0638 218.547 105.398C218.547 111.733 219.777 117.794 222.238 123.582C224.699 129.37 228.003 134.36 232.15 138.553C236.343 142.7 241.333 146.004 247.121 148.465C252.909 150.926 258.97 152.156 265.305 152.156C271.639 152.156 277.701 150.926 283.488 148.465C289.276 146.004 294.243 142.7 298.391 138.553C302.583 134.36 305.91 129.37 308.371 123.582C310.832 117.794 312.062 111.733 312.062 105.398C312.062 99.0638 310.832 93.0026 308.371 87.2148C305.91 81.4271 302.583 76.4596 298.391 72.3125C294.243 68.1198 289.276 64.793 283.488 62.332C277.701 59.8711 271.639 58.6406 265.305 58.6406C258.97 58.6406 252.909 59.8711 247.121 62.332C241.333 64.793 236.343 68.1198 232.15 72.3125C228.003 76.4596 224.699 81.4271 222.238 87.2148ZM220.529 131.307C215.926 123.377 213.625 114.741 213.625 105.398C213.625 96.056 215.926 87.4199 220.529 79.4902C225.178 71.5605 231.467 65.2943 239.396 60.6914C247.326 56.043 255.962 53.7188 265.305 53.7188C274.647 53.7188 283.283 56.043 291.213 60.6914C299.143 65.2943 305.409 71.5605 310.012 79.4902C314.66 87.4199 316.984 96.056 316.984 105.398C316.984 114.741 314.66 123.377 310.012 131.307C305.409 139.236 299.143 145.525 291.213 150.174C283.283 154.777 274.647 157.078 265.305 157.078C255.962 157.078 247.326 154.777 239.396 150.174C231.467 145.525 225.178 139.236 220.529 131.307ZM213.146 83.4551C210.184 90.4277 208.703 97.7422 208.703 105.398C208.703 113.055 210.184 120.392 213.146 127.41C216.154 134.383 220.188 140.398 225.246 145.457C230.305 150.516 236.32 154.549 243.293 157.557C250.311 160.519 257.648 162 265.305 162C272.961 162 280.275 160.519 287.248 157.557C294.266 154.549 300.305 150.516 305.363 145.457C310.422 140.398 314.432 134.383 317.395 127.41C320.402 120.392 321.906 113.055 321.906 105.398C321.906 97.7422 320.402 90.4277 317.395 83.4551C314.432 76.4368 310.422 70.3984 305.363 65.3398C300.305 60.2812 294.266 56.2708 287.248 53.3086C280.275 50.3008 272.961 48.7969 265.305 48.7969C257.648 48.7969 250.311 50.3008 243.293 53.3086C236.32 56.2708 230.305 60.2812 225.246 65.3398C220.188 70.3984 216.154 76.4368 213.146 83.4551ZM208.635 129.324C205.399 121.714 203.781 113.738 203.781 105.398C203.781 97.0586 205.399 89.1061 208.635 81.541C211.916 73.9303 216.291 67.3906 221.76 61.9219C227.274 56.4076 233.814 52.0326 241.379 48.7969C248.99 45.5156 256.965 43.875 265.305 43.875C273.645 43.875 281.597 45.5156 289.162 48.7969C296.773 52.0326 303.312 56.4076 308.781 61.9219C314.296 67.3906 318.671 73.9303 321.906 81.541C325.188 89.1061 326.828 97.0586 326.828 105.398C326.828 113.738 325.188 121.714 321.906 129.324C318.671 136.889 314.296 143.429 308.781 148.943C303.312 154.412 296.773 158.764 289.162 162C281.597 165.281 273.645 166.922 265.305 166.922C256.965 166.922 248.99 165.281 241.379 162C233.814 158.764 227.274 154.412 221.76 148.943C216.291 143.429 211.916 136.889 208.635 129.324ZM336.809 98.0156V93.0938H390.949V98.0156H336.809ZM336.809 107.859V102.938H390.949V107.859H336.809ZM336.809 117.703V112.781H390.949V117.703H336.809ZM402.434 125.291V120.027L479.475 89.5391L402.434 59.0508V53.7871L486.105 86.873V92.2051L402.434 125.291ZM402.434 135.887V130.555L486.105 97.4688V102.732L402.434 135.887ZM402.434 157.078V151.746L486.105 118.66V123.924L402.434 157.078ZM402.434 146.482V141.219L486.105 108.064V113.328L402.434 146.482ZM402.434 69.5781V64.3145L467.785 90.1543L461.496 92.957L402.434 69.5781ZM402.434 80.2422V74.9102L454.797 95.623L448.029 98.2207L402.434 80.2422ZM402.434 90.7695V85.5059L441.262 100.818L434.357 103.416L402.434 90.7695ZM526.779 132.469V78.3281C526.779 78.3281 537.967 78.3281 560.344 78.3281C565.767 78.3281 570.415 80.9941 574.289 86.3262C578.208 91.6126 580.168 97.9701 580.168 105.398C580.168 112.872 578.208 119.253 574.289 124.539C570.415 129.826 565.767 132.469 560.344 132.469H526.779ZM531.701 127.547H560.344C564.4 127.547 567.863 125.382 570.734 121.053C573.651 116.723 575.109 111.505 575.109 105.398C575.109 99.2461 573.651 94.028 570.734 89.7441C567.863 85.4147 564.4 83.25 560.344 83.25H531.701V127.547ZM521.857 137.391H560.344C567.134 137.391 572.967 134.269 577.844 128.025C582.766 121.736 585.227 114.194 585.227 105.398C585.227 99.6107 584.087 94.2559 581.809 89.334C579.576 84.4121 576.545 80.5384 572.717 77.7129C568.934 74.8418 564.81 73.4062 560.344 73.4062H521.857V137.391ZM516.936 142.312V68.4844H560.344C565.676 68.4844 570.643 70.125 575.246 73.4062C579.849 76.6875 583.495 81.1764 586.184 86.873C588.918 92.5241 590.285 98.6992 590.285 105.398C590.285 112.052 588.918 118.227 586.184 123.924C583.495 129.62 579.849 134.109 575.246 137.391C570.643 140.672 565.676 142.312 560.344 142.312H516.936ZM512.014 147.234H560.344C566.587 147.234 572.375 145.366 577.707 141.629C583.085 137.892 587.368 132.811 590.559 126.385C593.749 119.959 595.344 112.964 595.344 105.398C595.344 97.8789 593.749 90.9062 590.559 84.4805C587.368 78.0091 583.085 72.9049 577.707 69.168C572.329 65.431 566.542 63.5625 560.344 63.5625H512.014V147.234ZM507.092 152.156V58.6406H560.344C567.453 58.6406 574.084 60.737 580.236 64.9297C586.389 69.0768 591.288 74.7507 594.934 81.9512C598.579 89.1517 600.402 96.9674 600.402 105.398C600.402 113.829 598.579 121.645 594.934 128.846C591.288 136.046 586.389 141.743 580.236 145.936C574.084 150.083 567.453 152.156 560.344 152.156H507.092ZM502.17 157.078H560.344C566.314 157.078 572.079 155.711 577.639 152.977C583.199 150.242 588.007 146.574 592.062 141.971C596.118 137.368 599.354 131.876 601.77 125.496C604.23 119.07 605.461 112.371 605.461 105.398C605.461 98.4258 604.23 91.7493 601.77 85.3691C599.354 78.9889 596.118 73.4974 592.062 68.8945C588.007 64.2461 583.199 60.5547 577.639 57.8203C572.079 55.0859 566.314 53.7188 560.344 53.7188H502.17V157.078ZM560.344 162H497.248V48.7969H560.344C569.23 48.7969 577.525 51.3262 585.227 56.3848C592.928 61.4434 599.058 68.3249 603.615 77.0293C608.218 85.7337 610.52 95.1901 610.52 105.398C610.52 113.055 609.152 120.392 606.418 127.41C603.729 134.383 600.129 140.398 595.617 145.457C591.105 150.516 585.751 154.549 579.553 157.557C573.4 160.519 566.997 162 560.344 162ZM663.156 128.777L665.139 123.855H681.955L683.938 128.777H663.156ZM659.328 138.621L661.242 133.699H685.783L687.902 138.621H659.328ZM655.5 148.465L657.414 143.543H689.68L691.73 148.465H655.5ZM615.51 162H610.178L654.953 48.7969H660.285L704.992 162H699.729L657.619 55.4277L615.51 162ZM658.234 67.1172L661.037 73.4062L626.037 162H620.773L658.234 67.1172ZM663.703 80.1055L666.301 86.873L636.701 162H631.369L663.703 80.1055ZM668.898 93.6406L671.496 100.545L647.229 162H641.965L668.898 93.6406ZM736.779 162H731.447L686.74 48.7969H692.004L736.779 162ZM681.408 48.7969L726.184 162H720.92L676.145 48.7969H681.408ZM670.812 48.7969L715.588 162H710.256L665.549 48.7969H670.812ZM743.205 53.7188V48.7969H817.033V53.7188H743.205ZM743.205 63.5625V58.6406H817.033V63.5625H743.205ZM743.205 73.4062V68.4844H817.033V73.4062H797.346V162H792.424V73.4062H787.502V162H782.58V73.4062H777.658V162H772.736V73.4062H767.814V162H762.893V73.4062H743.205ZM877.121 128.777L879.104 123.855H895.92L897.902 128.777H877.121ZM873.293 138.621L875.207 133.699H899.748L901.867 138.621H873.293ZM869.465 148.465L871.379 143.543H903.645L905.695 148.465H869.465ZM829.475 162H824.143L868.918 48.7969H874.25L918.957 162H913.693L871.584 55.4277L829.475 162ZM872.199 67.1172L875.002 73.4062L840.002 162H834.738L872.199 67.1172ZM877.668 80.1055L880.266 86.873L850.666 162H845.334L877.668 80.1055ZM882.863 93.6406L885.461 100.545L861.193 162H855.93L882.863 93.6406ZM950.744 162H945.412L900.705 48.7969H905.969L950.744 162ZM895.373 48.7969L940.148 162H934.885L890.109 48.7969H895.373ZM884.777 48.7969L929.553 162H924.221L879.514 48.7969H884.777ZM403.596 305.488L399.562 308.154C397.102 304.508 393.889 301.637 389.924 299.541C386.005 297.399 381.743 296.328 377.141 296.328C369.667 296.328 363.286 298.971 358 304.258C352.714 309.544 350.07 315.924 350.07 323.398C350.07 330.872 352.714 337.253 358 342.539C363.286 347.826 369.667 350.469 377.141 350.469C381.743 350.469 386.005 349.398 389.924 347.256C393.889 345.114 397.102 342.22 399.562 338.574L403.527 341.445C400.611 345.729 396.828 349.124 392.18 351.631C387.531 354.137 382.518 355.391 377.141 355.391C372.811 355.391 368.664 354.548 364.699 352.861C360.78 351.175 357.385 348.896 354.514 346.025C351.643 343.154 349.364 339.759 347.678 335.84C345.992 331.875 345.148 327.728 345.148 323.398C345.148 319.069 345.992 314.945 347.678 311.025C349.364 307.061 351.643 303.643 354.514 300.771C357.385 297.9 360.78 295.622 364.699 293.936C368.664 292.249 372.811 291.406 377.141 291.406C382.564 291.406 387.6 292.682 392.248 295.234C396.896 297.741 400.679 301.159 403.596 305.488ZM411.73 299.883L407.629 302.549C404.257 297.627 399.882 293.73 394.504 290.859C389.172 287.943 383.384 286.484 377.141 286.484C370.441 286.484 364.266 288.148 358.615 291.475C352.964 294.756 348.475 299.222 345.148 304.873C341.867 310.524 340.227 316.699 340.227 323.398C340.227 330.098 341.867 336.273 345.148 341.924C348.475 347.575 352.964 352.064 358.615 355.391C364.266 358.672 370.441 360.312 377.141 360.312C383.384 360.312 389.195 358.854 394.572 355.938C399.95 353.021 404.325 349.079 407.697 344.111L411.73 346.914C407.902 352.565 402.935 357.031 396.828 360.312C390.767 363.594 384.204 365.234 377.141 365.234C369.576 365.234 362.58 363.366 356.154 359.629C349.729 355.892 344.647 350.811 340.91 344.385C337.173 337.959 335.305 330.964 335.305 323.398C335.305 315.833 337.173 308.838 340.91 302.412C344.647 295.986 349.729 290.905 356.154 287.168C362.58 283.431 369.576 281.562 377.141 281.562C384.204 281.562 390.767 283.203 396.828 286.484C402.935 289.766 407.902 294.232 411.73 299.883ZM419.934 294.414L415.832 297.08C411.548 290.791 405.988 285.824 399.152 282.178C392.362 278.486 385.025 276.641 377.141 276.641C370.806 276.641 364.745 277.871 358.957 280.332C353.169 282.793 348.179 286.12 343.986 290.312C339.839 294.46 336.535 299.427 334.074 305.215C331.613 311.003 330.383 317.064 330.383 323.398C330.383 329.733 331.613 335.794 334.074 341.582C336.535 347.37 339.839 352.36 343.986 356.553C348.179 360.7 353.169 364.004 358.957 366.465C364.745 368.926 370.806 370.156 377.141 370.156C385.07 370.156 392.43 368.311 399.221 364.619C406.011 360.928 411.548 355.938 415.832 349.648L419.797 352.588C415.057 359.515 408.928 365.007 401.408 369.062C393.934 373.073 385.845 375.078 377.141 375.078C367.798 375.078 359.162 372.777 351.232 368.174C343.303 363.525 337.014 357.236 332.365 349.307C327.762 341.377 325.461 332.741 325.461 323.398C325.461 314.056 327.762 305.42 332.365 297.49C337.014 289.561 343.303 283.294 351.232 278.691C359.162 274.043 367.798 271.719 377.141 271.719C385.891 271.719 394.025 273.77 401.545 277.871C409.064 281.927 415.194 287.441 419.934 294.414ZM428 288.809L423.898 291.475C418.703 283.864 411.981 277.848 403.732 273.428C395.529 269.007 386.665 266.797 377.141 266.797C369.484 266.797 362.147 268.301 355.129 271.309C348.156 274.271 342.141 278.281 337.082 283.34C332.023 288.398 327.99 294.437 324.982 301.455C322.02 308.428 320.539 315.742 320.539 323.398C320.539 331.055 322.02 338.392 324.982 345.41C327.99 352.383 332.023 358.398 337.082 363.457C342.141 368.516 348.156 372.549 355.129 375.557C362.147 378.519 369.484 380 377.141 380C386.665 380 395.552 377.767 403.801 373.301C412.049 368.835 418.771 362.796 423.967 355.186L427.932 358.193C422.281 366.396 414.989 372.913 406.057 377.744C397.124 382.529 387.486 384.922 377.141 384.922C368.801 384.922 360.826 383.281 353.215 380C345.65 376.764 339.11 372.412 333.596 366.943C328.127 361.429 323.752 354.889 320.471 347.324C317.235 339.714 315.617 331.738 315.617 323.398C315.617 315.059 317.235 307.106 320.471 299.541C323.752 291.93 328.127 285.391 333.596 279.922C339.11 274.408 345.65 270.033 353.215 266.797C360.826 263.516 368.801 261.875 377.141 261.875C387.531 261.875 397.193 264.29 406.125 269.121C415.057 273.952 422.349 280.514 428 288.809ZM462.111 380H457.189V266.797H462.111V380ZM452.268 380H447.346V266.797H452.268V380ZM442.424 380H437.502V266.797H442.424V380ZM471.955 355.391H524.318V360.312H471.955V365.234H524.318V370.156H471.955V375.078H524.318V380H467.033V266.797H524.318V271.719H471.955V276.641H524.318V281.562H471.955V286.484H524.318V291.406H471.955V311.094H498.82V316.016H471.955V320.938H498.82V325.859H471.955V330.781H498.82V335.703H471.955V355.391ZM616.877 325.518L611.955 317.383V266.797H616.877V325.518ZM626.721 341.65L621.799 333.379V266.797H626.721V341.65ZM636.564 357.988L631.643 349.648V266.797H636.564V357.988ZM566.018 321.279L570.939 329.414V380H566.018V321.279ZM556.174 305.146L561.096 313.418V380H556.174V305.146ZM546.33 288.809L551.252 297.148V380H546.33V288.809ZM548.039 266.797H553.781L623.371 380H617.629L548.039 266.797ZM559.66 266.797H565.471L634.992 380H629.113L559.66 266.797ZM571.213 266.797H576.955L641.486 372.002V266.797H646.408V380C646.408 380 644.471 380 640.598 380L571.213 266.797ZM541.408 274.795V380H536.486V266.797C536.486 266.797 538.446 266.797 542.365 266.797L611.75 380H606.076L541.408 274.795ZM657.209 271.719V266.797H731.037V271.719H657.209ZM657.209 281.562V276.641H731.037V281.562H657.209ZM657.209 291.406V286.484H731.037V291.406H711.35V380H706.428V291.406H701.506V380H696.584V291.406H691.662V380H686.74V291.406H681.818V380H676.896V291.406H657.209ZM766.857 380H761.936V266.797H766.857V380ZM757.014 380H752.092V266.797H757.014V380ZM747.17 380H742.248V266.797H747.17V380ZM776.701 355.391H829.064V360.312H776.701V365.234H829.064V370.156H776.701V375.078H829.064V380H771.779V266.797H829.064V271.719H776.701V276.641H829.064V281.562H776.701V286.484H829.064V291.406H776.701V311.094H803.566V316.016H776.701V320.938H803.566V325.859H776.701V330.781H803.566V335.703H776.701V355.391ZM878.42 323.672H908.088C912.6 323.672 916.405 322.214 919.504 319.297C922.648 316.38 924.221 312.233 924.221 306.855C924.221 302.891 922.58 299.336 919.299 296.191C916.018 293.001 912.281 291.406 908.088 291.406H865.842V380H860.92V286.484H908.088C913.648 286.484 918.547 288.558 922.785 292.705C927.023 296.807 929.143 301.523 929.143 306.855C929.143 313.418 927.092 318.682 922.99 322.646C918.889 326.611 913.921 328.594 908.088 328.594H878.42V323.672ZM878.42 333.516H908.088C915.197 333.516 921.304 331.032 926.408 326.064C931.512 321.051 934.064 314.648 934.064 306.855C934.064 300.156 931.444 294.277 926.203 289.219C921.008 284.115 914.969 281.562 908.088 281.562H855.998V380H851.076V276.641H908.088C913.511 276.641 918.592 278.031 923.332 280.811C928.117 283.59 931.923 287.327 934.748 292.021C937.574 296.67 938.986 301.615 938.986 306.855C938.986 315.833 935.933 323.353 929.826 329.414C923.765 335.43 916.519 338.438 908.088 338.438H878.42V333.516ZM878.42 343.359H908.088C914.468 343.359 920.393 341.787 925.861 338.643C931.33 335.498 935.705 331.123 938.986 325.518C942.268 319.867 943.908 313.646 943.908 306.855C943.908 300.703 942.268 294.938 938.986 289.561C935.751 284.137 931.376 279.808 925.861 276.572C920.347 273.337 914.423 271.719 908.088 271.719H846.154V380H841.232V266.797H908.088C915.243 266.797 921.965 268.643 928.254 272.334C934.543 275.98 939.533 280.902 943.225 287.1C946.962 293.252 948.83 299.837 948.83 306.855C948.83 314.967 947.076 322.1 943.566 328.252C940.103 334.404 935.386 339.212 929.416 342.676L942.131 380H936.936L924.768 345C922.945 345.729 921.555 346.23 920.598 346.504L932.014 380H926.818L915.676 347.666C915.266 347.757 913.807 347.917 911.301 348.145L921.896 380H916.701L906.242 348.281H901.799L911.779 380H906.584L896.535 348.281H878.42V343.359ZM875.686 380H870.764V296.328H908.088C911.141 296.328 913.762 297.376 915.949 299.473C918.182 301.523 919.299 303.984 919.299 306.855C919.299 314.785 915.562 318.75 908.088 318.75H878.42V313.828H908.088C910.048 313.828 911.574 313.327 912.668 312.324C913.807 311.276 914.377 309.453 914.377 306.855C914.377 305.26 913.762 303.939 912.531 302.891C911.346 301.797 909.865 301.25 908.088 301.25H875.686V380Z" fill="#1E2E32" fill-opacity="0.1"/>
</svg>
