<svg width="863" height="351" viewBox="0 0 863 351" fill="none" xmlns="http://www.w3.org/2000/svg">
<path d="M133.469 129.045C133.469 130.321 133.241 131.506 132.785 132.6C132.329 133.693 131.691 134.65 130.871 135.471C130.096 136.245 129.162 136.861 128.068 137.316C126.975 137.772 125.79 138 124.514 138H60.3926C58.752 138 56.9746 137.818 55.0605 137.453C53.1921 137.043 51.3236 136.428 49.4551 135.607C47.6322 134.787 45.8776 133.739 44.1914 132.463C42.5052 131.141 41.0013 129.569 39.6797 127.746C38.4036 125.878 37.3783 123.736 36.6035 121.32C35.8288 118.859 35.4414 116.102 35.4414 113.049V64.9238C35.4414 63.2832 35.6237 61.5286 35.9883 59.6602C36.3984 57.7461 37.0137 55.8776 37.834 54.0547C38.6543 52.1862 39.7253 50.4089 41.0469 48.7227C42.3685 47.0365 43.9408 45.5553 45.7637 44.2793C47.6322 42.9577 49.7741 41.9095 52.1895 41.1348C54.6048 40.36 57.3392 39.9727 60.3926 39.9727H132.648V57.7461H60.3926C58.0684 57.7461 56.291 58.3613 55.0605 59.5918C53.8301 60.8223 53.2148 62.6452 53.2148 65.0605V113.049C53.2148 115.327 53.8301 117.105 55.0605 118.381C56.3366 119.611 58.1139 120.227 60.3926 120.227H115.695V97.9414H68.3906V80.0312H124.514C125.79 80.0312 126.975 80.2819 128.068 80.7832C129.162 81.2389 130.096 81.877 130.871 82.6973C131.691 83.5176 132.329 84.4746 132.785 85.5684C133.241 86.6165 133.469 87.7559 133.469 88.9863V129.045ZM254.875 98.3516C254.875 104.322 253.85 109.813 251.799 114.826C249.748 119.839 246.9 124.169 243.254 127.814C239.608 131.46 235.279 134.309 230.266 136.359C225.298 138.365 219.875 139.367 213.996 139.367H189.934C184.055 139.367 178.609 138.365 173.596 136.359C168.583 134.309 164.253 131.46 160.607 127.814C156.962 124.169 154.09 119.839 151.994 114.826C149.943 109.813 148.918 104.322 148.918 98.3516V79.6211C148.918 73.6966 149.943 68.2279 151.994 63.2148C154.09 58.1562 156.962 53.8268 160.607 50.2266C164.253 46.5807 168.583 43.7324 173.596 41.6816C178.609 39.6309 184.055 38.6055 189.934 38.6055H213.996C219.875 38.6055 225.298 39.6309 230.266 41.6816C235.279 43.7324 239.608 46.5807 243.254 50.2266C246.9 53.8268 249.748 58.1562 251.799 63.2148C253.85 68.2279 254.875 73.6966 254.875 79.6211V98.3516ZM237.102 79.6211C237.102 76.112 236.532 72.9447 235.393 70.1191C234.299 67.248 232.727 64.8099 230.676 62.8047C228.671 60.7539 226.232 59.1816 223.361 58.0879C220.536 56.9486 217.414 56.3789 213.996 56.3789H189.934C186.47 56.3789 183.303 56.9486 180.432 58.0879C177.606 59.1816 175.168 60.7539 173.117 62.8047C171.066 64.8099 169.471 67.248 168.332 70.1191C167.238 72.9447 166.691 76.112 166.691 79.6211V98.3516C166.691 101.861 167.238 105.051 168.332 107.922C169.471 110.747 171.066 113.186 173.117 115.236C175.168 117.242 177.606 118.814 180.432 119.953C183.303 121.047 186.47 121.594 189.934 121.594H213.859C217.323 121.594 220.467 121.047 223.293 119.953C226.164 118.814 228.625 117.242 230.676 115.236C232.727 113.186 234.299 110.747 235.393 107.922C236.532 105.051 237.102 101.861 237.102 98.3516V79.6211ZM334.172 96.9844H270.051V80.9883H334.172V96.9844ZM374.367 52.3457L407.863 82.2871C408.775 83.1074 409.481 84.0872 409.982 85.2266C410.529 86.3659 410.803 87.5736 410.803 88.8496C410.803 90.1712 410.529 91.4245 409.982 92.6094C409.436 93.7487 408.684 94.7285 407.727 95.5488L374.641 124.533H349.074L389.816 88.8496L349.074 52.3457H374.367ZM523.801 96.9844C523.801 102.954 522.753 108.446 520.656 113.459C518.605 118.472 515.757 122.801 512.111 126.447C508.465 130.048 504.136 132.873 499.123 134.924C494.11 136.975 488.664 138 482.785 138H434.797C433.521 138 432.336 137.772 431.242 137.316C430.148 136.861 429.191 136.245 428.371 135.471C427.596 134.65 426.981 133.693 426.525 132.6C426.07 131.506 425.842 130.321 425.842 129.045V48.9277C425.842 47.6973 426.07 46.5352 426.525 45.4414C426.981 44.3477 427.596 43.3906 428.371 42.5703C429.191 41.75 430.148 41.112 431.242 40.6562C432.336 40.2005 433.521 39.9727 434.797 39.9727H482.785C488.664 39.9727 494.11 40.998 499.123 43.0488C504.136 45.0996 508.465 47.9479 512.111 51.5938C515.757 55.194 518.605 59.5234 520.656 64.582C522.753 69.5951 523.801 75.0638 523.801 80.9883V96.9844ZM506.027 80.9883C506.027 77.5247 505.458 74.3574 504.318 71.4863C503.225 68.6152 501.652 66.1771 499.602 64.1719C497.551 62.1211 495.09 60.5488 492.219 59.4551C489.393 58.3158 486.249 57.7461 482.785 57.7461H443.615V120.227H482.785C486.249 120.227 489.393 119.68 492.219 118.586C495.09 117.447 497.551 115.874 499.602 113.869C501.652 111.818 503.225 109.38 504.318 106.555C505.458 103.684 506.027 100.493 506.027 96.9844V80.9883ZM637.414 138H619.641V113.938H557.16V138H539.387V88.9863C539.387 81.8314 540.617 75.2461 543.078 69.2305C545.539 63.2148 548.957 58.0423 553.332 53.7129C557.707 49.3835 562.88 46.0111 568.85 43.5957C574.82 41.1803 581.337 39.9727 588.4 39.9727H628.459C629.689 39.9727 630.852 40.2005 631.945 40.6562C633.039 41.112 633.996 41.75 634.816 42.5703C635.637 43.3906 636.275 44.3477 636.73 45.4414C637.186 46.5352 637.414 47.6973 637.414 48.9277V138ZM557.16 96.1641H619.641V57.7461H588.4C587.854 57.7461 586.691 57.8372 584.914 58.0195C583.182 58.1562 581.154 58.5436 578.83 59.1816C576.551 59.8197 574.136 60.7995 571.584 62.1211C569.032 63.4427 566.685 65.2656 564.543 67.5898C562.401 69.9141 560.624 72.8307 559.211 76.3398C557.844 79.8034 557.16 84.0189 557.16 88.9863V96.1641ZM746.721 57.7461H707.551V138H689.777V57.7461H650.539V39.9727H746.721V57.7461ZM852.609 138H834.836V113.938H772.355V138H754.582V88.9863C754.582 81.8314 755.812 75.2461 758.273 69.2305C760.734 63.2148 764.152 58.0423 768.527 53.7129C772.902 49.3835 778.075 46.0111 784.045 43.5957C790.015 41.1803 796.532 39.9727 803.596 39.9727H843.654C844.885 39.9727 846.047 40.2005 847.141 40.6562C848.234 41.112 849.191 41.75 850.012 42.5703C850.832 43.3906 851.47 44.3477 851.926 45.4414C852.382 46.5352 852.609 47.6973 852.609 48.9277V138ZM772.355 96.1641H834.836V57.7461H803.596C803.049 57.7461 801.887 57.8372 800.109 58.0195C798.378 58.1562 796.35 58.5436 794.025 59.1816C791.747 59.8197 789.331 60.7995 786.779 62.1211C784.227 63.4427 781.88 65.2656 779.738 67.5898C777.596 69.9141 775.819 72.8307 774.406 76.3398C773.039 79.8034 772.355 84.0189 772.355 88.9863V96.1641ZM308.674 316H244.553C242.912 316 241.135 315.818 239.221 315.453C237.352 315.043 235.484 314.428 233.615 313.607C231.792 312.787 230.038 311.739 228.352 310.463C226.665 309.141 225.161 307.569 223.84 305.746C222.564 303.878 221.538 301.736 220.764 299.32C219.989 296.859 219.602 294.102 219.602 291.049V242.924C219.602 241.283 219.784 239.529 220.148 237.66C220.559 235.746 221.174 233.878 221.994 232.055C222.814 230.186 223.885 228.409 225.207 226.723C226.529 225.036 228.101 223.555 229.924 222.279C231.792 220.958 233.934 219.91 236.35 219.135C238.765 218.36 241.499 217.973 244.553 217.973H308.674V235.746H244.553C242.229 235.746 240.451 236.361 239.221 237.592C237.99 238.822 237.375 240.645 237.375 243.061V291.049C237.375 293.327 237.99 295.105 239.221 296.381C240.497 297.611 242.274 298.227 244.553 298.227H308.674V316ZM406.086 275.941H349.963V258.031H406.086V275.941ZM414.084 316H349.963C347.502 316 344.813 315.567 341.896 314.701C338.98 313.835 336.268 312.423 333.762 310.463C331.301 308.458 329.227 305.883 327.541 302.738C325.9 299.548 325.08 295.652 325.08 291.049V226.928C325.08 225.697 325.308 224.535 325.764 223.441C326.219 222.348 326.835 221.391 327.609 220.57C328.43 219.75 329.387 219.112 330.48 218.656C331.574 218.201 332.759 217.973 334.035 217.973H414.084V235.746H342.854V291.049C342.854 293.373 343.469 295.15 344.699 296.381C345.93 297.611 347.73 298.227 350.1 298.227H414.084V316ZM529.27 308.412C529.27 309.688 529.019 310.873 528.518 311.967C528.062 313.061 527.424 314.018 526.604 314.838C525.829 315.613 524.895 316.228 523.801 316.684C522.707 317.139 521.545 317.367 520.314 317.367C519.221 317.367 518.104 317.162 516.965 316.752C515.871 316.342 514.891 315.681 514.025 314.77L449.084 246.957V316H431.311V225.561C431.311 223.738 431.812 222.097 432.814 220.639C433.863 219.135 435.184 218.018 436.779 217.289C438.465 216.605 440.197 216.446 441.975 216.811C443.752 217.13 445.279 217.95 446.555 219.271L511.496 287.016V217.973H529.27V308.412ZM638.576 235.746H599.406V316H581.633V235.746H542.395V217.973H638.576V235.746ZM732.297 275.941H676.174V258.031H732.297V275.941ZM740.295 316H676.174C673.713 316 671.024 315.567 668.107 314.701C665.191 313.835 662.479 312.423 659.973 310.463C657.512 308.458 655.438 305.883 653.752 302.738C652.111 299.548 651.291 295.652 651.291 291.049V226.928C651.291 225.697 651.519 224.535 651.975 223.441C652.43 222.348 653.046 221.391 653.82 220.57C654.641 219.75 655.598 219.112 656.691 218.656C657.785 218.201 658.97 217.973 660.246 217.973H740.295V235.746H669.064V291.049C669.064 293.373 669.68 295.15 670.91 296.381C672.141 297.611 673.941 298.227 676.311 298.227H740.295V316ZM855.48 250.922C855.48 254.978 854.979 258.601 853.977 261.791C852.974 264.981 851.607 267.807 849.875 270.268C848.189 272.683 846.229 274.757 843.996 276.488C841.763 278.22 839.416 279.656 836.955 280.795C834.54 281.889 832.079 282.686 829.572 283.188C827.111 283.689 824.787 283.939 822.6 283.939L859.719 316H832.238L795.188 283.939H782.404V266.166H822.6C824.833 265.984 826.861 265.528 828.684 264.799C830.552 264.024 832.147 262.999 833.469 261.723C834.836 260.447 835.884 258.92 836.613 257.143C837.342 255.32 837.707 253.246 837.707 250.922V239.711C837.707 238.708 837.57 237.956 837.297 237.455C837.069 236.908 836.75 236.521 836.34 236.293C835.975 236.02 835.565 235.86 835.109 235.814C834.699 235.769 834.312 235.746 833.947 235.746H775.295V316H757.521V226.928C757.521 225.697 757.749 224.535 758.205 223.441C758.661 222.348 759.276 221.391 760.051 220.57C760.871 219.75 761.828 219.112 762.922 218.656C764.016 218.201 765.201 217.973 766.477 217.973H833.947C837.912 217.973 841.262 218.702 843.996 220.16C846.73 221.573 848.941 223.373 850.627 225.561C852.359 227.702 853.589 230.027 854.318 232.533C855.093 235.04 855.48 237.387 855.48 239.574V250.922Z" fill="white"/>
<path d="M133.469 129.045C133.469 130.321 133.241 131.506 132.785 132.6C132.329 133.693 131.691 134.65 130.871 135.471C130.096 136.245 129.162 136.861 128.068 137.316C126.975 137.772 125.79 138 124.514 138H60.3926C58.752 138 56.9746 137.818 55.0605 137.453C53.1921 137.043 51.3236 136.428 49.4551 135.607C47.6322 134.787 45.8776 133.739 44.1914 132.463C42.5052 131.141 41.0013 129.569 39.6797 127.746C38.4036 125.878 37.3783 123.736 36.6035 121.32C35.8288 118.859 35.4414 116.102 35.4414 113.049V64.9238C35.4414 63.2832 35.6237 61.5286 35.9883 59.6602C36.3984 57.7461 37.0137 55.8776 37.834 54.0547C38.6543 52.1862 39.7253 50.4089 41.0469 48.7227C42.3685 47.0365 43.9408 45.5553 45.7637 44.2793C47.6322 42.9577 49.7741 41.9095 52.1895 41.1348C54.6048 40.36 57.3392 39.9727 60.3926 39.9727H132.648V57.7461H60.3926C58.0684 57.7461 56.291 58.3613 55.0605 59.5918C53.8301 60.8223 53.2148 62.6452 53.2148 65.0605V113.049C53.2148 115.327 53.8301 117.105 55.0605 118.381C56.3366 119.611 58.1139 120.227 60.3926 120.227H115.695V97.9414H68.3906V80.0312H124.514C125.79 80.0312 126.975 80.2819 128.068 80.7832C129.162 81.2389 130.096 81.877 130.871 82.6973C131.691 83.5176 132.329 84.4746 132.785 85.5684C133.241 86.6165 133.469 87.7559 133.469 88.9863V129.045ZM254.875 98.3516C254.875 104.322 253.85 109.813 251.799 114.826C249.748 119.839 246.9 124.169 243.254 127.814C239.608 131.46 235.279 134.309 230.266 136.359C225.298 138.365 219.875 139.367 213.996 139.367H189.934C184.055 139.367 178.609 138.365 173.596 136.359C168.583 134.309 164.253 131.46 160.607 127.814C156.962 124.169 154.09 119.839 151.994 114.826C149.943 109.813 148.918 104.322 148.918 98.3516V79.6211C148.918 73.6966 149.943 68.2279 151.994 63.2148C154.09 58.1562 156.962 53.8268 160.607 50.2266C164.253 46.5807 168.583 43.7324 173.596 41.6816C178.609 39.6309 184.055 38.6055 189.934 38.6055H213.996C219.875 38.6055 225.298 39.6309 230.266 41.6816C235.279 43.7324 239.608 46.5807 243.254 50.2266C246.9 53.8268 249.748 58.1562 251.799 63.2148C253.85 68.2279 254.875 73.6966 254.875 79.6211V98.3516ZM237.102 79.6211C237.102 76.112 236.532 72.9447 235.393 70.1191C234.299 67.248 232.727 64.8099 230.676 62.8047C228.671 60.7539 226.232 59.1816 223.361 58.0879C220.536 56.9486 217.414 56.3789 213.996 56.3789H189.934C186.47 56.3789 183.303 56.9486 180.432 58.0879C177.606 59.1816 175.168 60.7539 173.117 62.8047C171.066 64.8099 169.471 67.248 168.332 70.1191C167.238 72.9447 166.691 76.112 166.691 79.6211V98.3516C166.691 101.861 167.238 105.051 168.332 107.922C169.471 110.747 171.066 113.186 173.117 115.236C175.168 117.242 177.606 118.814 180.432 119.953C183.303 121.047 186.47 121.594 189.934 121.594H213.859C217.323 121.594 220.467 121.047 223.293 119.953C226.164 118.814 228.625 117.242 230.676 115.236C232.727 113.186 234.299 110.747 235.393 107.922C236.532 105.051 237.102 101.861 237.102 98.3516V79.6211ZM334.172 96.9844H270.051V80.9883H334.172V96.9844ZM374.367 52.3457L407.863 82.2871C408.775 83.1074 409.481 84.0872 409.982 85.2266C410.529 86.3659 410.803 87.5736 410.803 88.8496C410.803 90.1712 410.529 91.4245 409.982 92.6094C409.436 93.7487 408.684 94.7285 407.727 95.5488L374.641 124.533H349.074L389.816 88.8496L349.074 52.3457H374.367ZM523.801 96.9844C523.801 102.954 522.753 108.446 520.656 113.459C518.605 118.472 515.757 122.801 512.111 126.447C508.465 130.048 504.136 132.873 499.123 134.924C494.11 136.975 488.664 138 482.785 138H434.797C433.521 138 432.336 137.772 431.242 137.316C430.148 136.861 429.191 136.245 428.371 135.471C427.596 134.65 426.981 133.693 426.525 132.6C426.07 131.506 425.842 130.321 425.842 129.045V48.9277C425.842 47.6973 426.07 46.5352 426.525 45.4414C426.981 44.3477 427.596 43.3906 428.371 42.5703C429.191 41.75 430.148 41.112 431.242 40.6562C432.336 40.2005 433.521 39.9727 434.797 39.9727H482.785C488.664 39.9727 494.11 40.998 499.123 43.0488C504.136 45.0996 508.465 47.9479 512.111 51.5938C515.757 55.194 518.605 59.5234 520.656 64.582C522.753 69.5951 523.801 75.0638 523.801 80.9883V96.9844ZM506.027 80.9883C506.027 77.5247 505.458 74.3574 504.318 71.4863C503.225 68.6152 501.652 66.1771 499.602 64.1719C497.551 62.1211 495.09 60.5488 492.219 59.4551C489.393 58.3158 486.249 57.7461 482.785 57.7461H443.615V120.227H482.785C486.249 120.227 489.393 119.68 492.219 118.586C495.09 117.447 497.551 115.874 499.602 113.869C501.652 111.818 503.225 109.38 504.318 106.555C505.458 103.684 506.027 100.493 506.027 96.9844V80.9883ZM637.414 138H619.641V113.938H557.16V138H539.387V88.9863C539.387 81.8314 540.617 75.2461 543.078 69.2305C545.539 63.2148 548.957 58.0423 553.332 53.7129C557.707 49.3835 562.88 46.0111 568.85 43.5957C574.82 41.1803 581.337 39.9727 588.4 39.9727H628.459C629.689 39.9727 630.852 40.2005 631.945 40.6562C633.039 41.112 633.996 41.75 634.816 42.5703C635.637 43.3906 636.275 44.3477 636.73 45.4414C637.186 46.5352 637.414 47.6973 637.414 48.9277V138ZM557.16 96.1641H619.641V57.7461H588.4C587.854 57.7461 586.691 57.8372 584.914 58.0195C583.182 58.1562 581.154 58.5436 578.83 59.1816C576.551 59.8197 574.136 60.7995 571.584 62.1211C569.032 63.4427 566.685 65.2656 564.543 67.5898C562.401 69.9141 560.624 72.8307 559.211 76.3398C557.844 79.8034 557.16 84.0189 557.16 88.9863V96.1641ZM746.721 57.7461H707.551V138H689.777V57.7461H650.539V39.9727H746.721V57.7461ZM852.609 138H834.836V113.938H772.355V138H754.582V88.9863C754.582 81.8314 755.812 75.2461 758.273 69.2305C760.734 63.2148 764.152 58.0423 768.527 53.7129C772.902 49.3835 778.075 46.0111 784.045 43.5957C790.015 41.1803 796.532 39.9727 803.596 39.9727H843.654C844.885 39.9727 846.047 40.2005 847.141 40.6562C848.234 41.112 849.191 41.75 850.012 42.5703C850.832 43.3906 851.47 44.3477 851.926 45.4414C852.382 46.5352 852.609 47.6973 852.609 48.9277V138ZM772.355 96.1641H834.836V57.7461H803.596C803.049 57.7461 801.887 57.8372 800.109 58.0195C798.378 58.1562 796.35 58.5436 794.025 59.1816C791.747 59.8197 789.331 60.7995 786.779 62.1211C784.227 63.4427 781.88 65.2656 779.738 67.5898C777.596 69.9141 775.819 72.8307 774.406 76.3398C773.039 79.8034 772.355 84.0189 772.355 88.9863V96.1641ZM308.674 316H244.553C242.912 316 241.135 315.818 239.221 315.453C237.352 315.043 235.484 314.428 233.615 313.607C231.792 312.787 230.038 311.739 228.352 310.463C226.665 309.141 225.161 307.569 223.84 305.746C222.564 303.878 221.538 301.736 220.764 299.32C219.989 296.859 219.602 294.102 219.602 291.049V242.924C219.602 241.283 219.784 239.529 220.148 237.66C220.559 235.746 221.174 233.878 221.994 232.055C222.814 230.186 223.885 228.409 225.207 226.723C226.529 225.036 228.101 223.555 229.924 222.279C231.792 220.958 233.934 219.91 236.35 219.135C238.765 218.36 241.499 217.973 244.553 217.973H308.674V235.746H244.553C242.229 235.746 240.451 236.361 239.221 237.592C237.99 238.822 237.375 240.645 237.375 243.061V291.049C237.375 293.327 237.99 295.105 239.221 296.381C240.497 297.611 242.274 298.227 244.553 298.227H308.674V316ZM406.086 275.941H349.963V258.031H406.086V275.941ZM414.084 316H349.963C347.502 316 344.813 315.567 341.896 314.701C338.98 313.835 336.268 312.423 333.762 310.463C331.301 308.458 329.227 305.883 327.541 302.738C325.9 299.548 325.08 295.652 325.08 291.049V226.928C325.08 225.697 325.308 224.535 325.764 223.441C326.219 222.348 326.835 221.391 327.609 220.57C328.43 219.75 329.387 219.112 330.48 218.656C331.574 218.201 332.759 217.973 334.035 217.973H414.084V235.746H342.854V291.049C342.854 293.373 343.469 295.15 344.699 296.381C345.93 297.611 347.73 298.227 350.1 298.227H414.084V316ZM529.27 308.412C529.27 309.688 529.019 310.873 528.518 311.967C528.062 313.061 527.424 314.018 526.604 314.838C525.829 315.613 524.895 316.228 523.801 316.684C522.707 317.139 521.545 317.367 520.314 317.367C519.221 317.367 518.104 317.162 516.965 316.752C515.871 316.342 514.891 315.681 514.025 314.77L449.084 246.957V316H431.311V225.561C431.311 223.738 431.812 222.097 432.814 220.639C433.863 219.135 435.184 218.018 436.779 217.289C438.465 216.605 440.197 216.446 441.975 216.811C443.752 217.13 445.279 217.95 446.555 219.271L511.496 287.016V217.973H529.27V308.412ZM638.576 235.746H599.406V316H581.633V235.746H542.395V217.973H638.576V235.746ZM732.297 275.941H676.174V258.031H732.297V275.941ZM740.295 316H676.174C673.713 316 671.024 315.567 668.107 314.701C665.191 313.835 662.479 312.423 659.973 310.463C657.512 308.458 655.438 305.883 653.752 302.738C652.111 299.548 651.291 295.652 651.291 291.049V226.928C651.291 225.697 651.519 224.535 651.975 223.441C652.43 222.348 653.046 221.391 653.82 220.57C654.641 219.75 655.598 219.112 656.691 218.656C657.785 218.201 658.97 217.973 660.246 217.973H740.295V235.746H669.064V291.049C669.064 293.373 669.68 295.15 670.91 296.381C672.141 297.611 673.941 298.227 676.311 298.227H740.295V316ZM855.48 250.922C855.48 254.978 854.979 258.601 853.977 261.791C852.974 264.981 851.607 267.807 849.875 270.268C848.189 272.683 846.229 274.757 843.996 276.488C841.763 278.22 839.416 279.656 836.955 280.795C834.54 281.889 832.079 282.686 829.572 283.188C827.111 283.689 824.787 283.939 822.6 283.939L859.719 316H832.238L795.188 283.939H782.404V266.166H822.6C824.833 265.984 826.861 265.528 828.684 264.799C830.552 264.024 832.147 262.999 833.469 261.723C834.836 260.447 835.884 258.92 836.613 257.143C837.342 255.32 837.707 253.246 837.707 250.922V239.711C837.707 238.708 837.57 237.956 837.297 237.455C837.069 236.908 836.75 236.521 836.34 236.293C835.975 236.02 835.565 235.86 835.109 235.814C834.699 235.769 834.312 235.746 833.947 235.746H775.295V316H757.521V226.928C757.521 225.697 757.749 224.535 758.205 223.441C758.661 222.348 759.276 221.391 760.051 220.57C760.871 219.75 761.828 219.112 762.922 218.656C764.016 218.201 765.201 217.973 766.477 217.973H833.947C837.912 217.973 841.262 218.702 843.996 220.16C846.73 221.573 848.941 223.373 850.627 225.561C852.359 227.702 853.589 230.027 854.318 232.533C855.093 235.04 855.48 237.387 855.48 239.574V250.922Z" fill="#1E2E32" fill-opacity="0.2"/>
</svg>
